<?xml version="1.0" encoding="UTF-8"?>
<svg id="Layer_2" data-name="Layer 2" xmlns="http://www.w3.org/2000/svg" viewBox="0 0 1235.13 830.03">
  <defs>
    <style>
      .cls-1 {
        fill: #fff;
      }

      .cls-2 {
        fill: #eaab8b;
      }

      .cls-3 {
        fill: #dc8d30;
      }

      .cls-4 {
        fill: #faee51;
      }

      .cls-5 {
        opacity: .5;
      }

      .cls-6 {
        fill: #b4533d;
      }

      .cls-7, .cls-8 {
        fill: #d3e3ed;
      }

      .cls-9 {
        stroke: #ba6e4d;
        stroke-width: .62px;
      }

      .cls-9, .cls-10, .cls-11, .cls-12, .cls-13, .cls-14, .cls-15, .cls-16, .cls-17 {
        fill: none;
        stroke-miterlimit: 10;
      }

      .cls-10 {
        stroke-width: 1.37px;
      }

      .cls-10, .cls-17 {
        stroke: #fff;
      }

      .cls-18, .cls-19 {
        fill: #b2c9ed;
        font-family: LilitaOne, LilitaOne;
        font-size: 26.8px;
      }

      .cls-20 {
        fill: #bd8068;
      }

      .cls-21 {
        letter-spacing: .1em;
      }

      .cls-22 {
        fill: #4c7c6a;
      }

      .cls-11 {
        stroke-width: 1.28px;
      }

      .cls-11, .cls-13, .cls-14, .cls-15 {
        stroke: #000;
      }

      .cls-23, .cls-24 {
        fill: #394263;
      }

      .cls-25 {
        fill: #c6782a;
      }

      .cls-12 {
        stroke: #efbdcc;
        stroke-linecap: round;
        stroke-width: 1.61px;
      }

      .cls-26 {
        letter-spacing: .1em;
      }

      .cls-13 {
        stroke-width: 1.34px;
      }

      .cls-27 {
        fill: #1f222d;
        opacity: .15;
      }

      .cls-28 {
        fill: #b64d24;
      }

      .cls-14 {
        stroke-width: .82px;
      }

      .cls-29 {
        letter-spacing: .09em;
      }

      .cls-30 {
        fill: #54619b;
      }

      .cls-31 {
        fill: #f0e8d4;
      }

      .cls-15 {
        stroke-width: 1.33px;
      }

      .cls-32, .cls-19 {
        letter-spacing: .1em;
      }

      .cls-33 {
        fill: #616f8a;
      }

      .cls-24 {
        opacity: .1;
      }

      .cls-34 {
        fill: #efbdcc;
      }

      .cls-35 {
        fill: #70a895;
      }

      .cls-36 {
        fill: #374863;
      }

      .cls-8 {
        fill-rule: evenodd;
      }

      .cls-37 {
        letter-spacing: .1em;
      }

      .cls-16 {
        stroke: #28493d;
        stroke-width: 1.07px;
      }

      .cls-38 {
        fill: #f4bea6;
      }

      .cls-39 {
        fill: #89a2d4;
      }

      .cls-17 {
        stroke-width: 5.46px;
      }

      .cls-40 {
        fill: #d78098;
      }

      .cls-41 {
        fill: #5e75a7;
      }

      .cls-42 {
        fill: #2c3b5b;
      }
    </style>
  </defs>
  <g id="OBJECTS">
    <g>
      <g>
        <g>
          <path class="cls-8" d="m287.95,826.02h-55.69v-10.4h8.79l46.6-89.98,1.03.44v-12.46h5.12l16.56-47.63,4.55-13.19h-1.17v-12.31h4.98v-2.34h-7.62v-13.34h11.73c.59-6.15,1.46-12.46,2.2-19.49,2.64-25.79,4.84-55.84,6.59-85.3l-.15-.14.15-.44c2.93-48.66,4.4-94.97,5.13-115.93h-.15v-2.93h.29l.29-7.18h-2.2v-12.02h5.42v-14.8h6.01v-20.96h2.2v-19.2h2.35v19.2h2.05v20.96h6.15v14.8h5.28v12.02h-2.05l.15,7.18h.44v2.93h-.3c1.32,37.22,5.42,153.59,14.07,221.3h11.58v13.34h-7.62v2.34h5.13v12.31h-1.76l4.55,13.19h.29v1.03l16.27,46.61h9.82v13.34l45.87,88.66h7.33v10.4h-55.69v-10.4h4.25l-23.6-45.58c-11.14-9.38-25.5-15.09-41.33-15.09-17.29,0-33.12,6.74-44.7,17.88l-22.13,42.8h2.93v10.4Zm106.99-132.48l-8.65,8.35,14.8,8.65h0l-6.16-17Zm-7.92-23.01l-7.47,7.48,13.19,8.64h0l-5.72-16.12Zm-5.86-17l-5.86,4.98,9.67,6.16h0l-3.81-11.14Zm-66.83,10.25l9.82-5.72-5.57-5.28h-.44l-3.81,10.99Zm-7.47,21.4l11.87-7.47-6.88-7.03h0l-4.98,14.5Zm-9.09,25.8l15.68-9.09-9.38-8.93h0l-6.3,18.02Zm60.67-317.59l-3.51,2.93-3.52-2.93h7.03Zm1.32.59l.29,6.6-4.11-3.22h0l3.81-3.37Zm-7.19,6.6l2.64-2.49,2.93,2.49h-5.57Zm-1.46-.74v-4.98l2.93,2.35h0l-2.93,2.64Zm0,3.67h8.94l-4.54,4.84-4.4-4.54h0v-.29Zm9.09,2.05l.15,7.91-3.67-3.96h0l3.52-3.96Zm-8.79,9.82l4.25-4.84,4.69,4.84h-8.94Zm-.3-2.2v-7.47l3.52,3.66h0l-3.52,3.81Zm0,4.98h8.94l-4.25,4.84-4.69-4.69h0v-.15Zm9.53,1.61l.29,8.35-3.81-4.1h0l3.52-4.25Zm.44,10.55h-9.38l4.25-5.13,5.13,4.98h0v.15Zm-9.97-1.91v-8.21l3.81,3.81h0l-3.81,4.4Zm0,4.69h9.38l-4.55,4.98-4.84-4.69h0v-.29Zm10.11,1.76l.29,7.62v.88l-4.25-4.1h0l3.96-4.4Zm-9.24,10.12l4.25-4.69,4.98,4.69h-9.24Zm-.88-1.32v-8.21l4.1,3.81h0l-4.1,4.4Zm0,4.25l.3-.15h9.82l-5.28,5.28-4.84-4.25h0v-.88Zm10.55,1.61l.44,8.65-4.84-4.1h0l4.4-4.54Zm-10.11,10.4l4.69-4.83,5.71,4.83h-10.41Zm-.44-1.9v-7.33l4.1,3.37h0l-4.1,3.96Zm-2.79-9.53l-5.27,4.54-4.98-5.28h9.82l.44.59h0v.15Zm13.34-.59v-.15h0v.15Zm-10.55,14.8h10.41l-4.84,4.83-5.57-4.69h0v-.15Zm11.29,1.32l.29,8.65-4.84-4.1h0l4.54-4.54Zm.59,10.85h-11.14l4.99-5.28,6.16,4.98h0v.29Zm-11.58-1.76v-8.35l4.25,3.81h0l-4.25,4.54Zm.15,4.4h10.55l-4.98,5.13-5.57-4.84h0v-.29Zm11.58,1.32l.29,9.38-5.13-4.54h0l4.84-4.84Zm-10.7,10.7l4.84-4.84,5.72,4.84h-10.55Zm-.73-1.32v-1.47l-.15-2.34v-4.69l4.4,3.96h0l-4.25,4.54Zm11.29-10.7l.14,1.32-.44-1.32h.3Zm-.88,14.8l-4.69,4.69-5.27-4.69h9.97Zm1.76.88l.44,9.96-5.57-4.98h0l5.13-4.98Zm-11.72,11.28l5.42-5.28,5.72,5.28h-11.14Zm-.15-2.34l-.15-1.76v-3.81l-.14-2.49,4.55,3.96h0l-4.25,4.1Zm10.41,5.13l-4.25,4.25-5.13-4.25h9.38Zm2.05.59l.74,9.68-5.57-4.54h0l4.84-5.13Zm-10.99,11.43l4.84-5.13,6.01,5.13h-10.85Zm-1.02-1.91l-.29-6.59v-1.91l4.54,4.11h0l-4.25,4.39Zm10.11,4.69l-4.4,4.68-5.57-4.68h9.97Zm2.78,0l.74,11.43-6.45-5.57h0l5.71-5.86Zm-11.72,12.01l4.69-4.69,5.57,4.69h-10.26Zm-.73-2.06l-.15-2.34v-3.81l-.15-.73v-.59l4.1,3.37h0l-3.81,4.1Zm10.4,4.84l-4.1,4.25-5.27-4.25h9.38Zm2.94,0l.88,11.14-6.45-5.42h0l5.57-5.72Zm-11.87,12.02l4.98-4.98,5.87,4.98h-10.85Zm-.88-2.05l-.29-5.57v-1.17l-.15-1.61,4.69,4.1h0l-4.25,4.25Zm11.43,4.84l-4.39,4.54-5.57-4.54h9.96Zm2.35.14l.88,10.41-6.01-4.84h0l5.13-5.57Zm-10.99,11.87l4.4-4.84,6.3,4.84h-10.7Zm-1.91-.88c-.3-3.08-.44-6.45-.59-9.53l5.57,4.25h0l-4.98,5.27Zm10.85,3.81l-4.25,4.24-5.57-4.24h9.82Zm2.64,0h.59c.3,3.66.59,7.47.88,10.99l-6.89-5.42h0l5.42-5.57Zm-11.28,11.87l4.69-4.98,6.01,4.98h-10.7Zm-1.32-1.46c-.29-2.79-.44-5.72-.58-8.65l4.98,3.96h0l-4.4,4.69Zm10.99,4.25l-3.67,3.96-4.84-3.96h8.5Zm2.78,0h.73c.14,3.52.44,7.03.88,10.26l-6.45-4.98h0l4.84-5.27Zm-11.43,12.17l5.43-5.57,6.74,5.57h-12.17Zm-1.17-1.62c-.44-3.07-.59-6.59-.88-9.81l5.86,4.68h0l-4.98,5.13Zm12.02,4.4l-4.54,4.98-6.45-4.98h10.99Zm2.64.15c.44,3.81.73,7.62,1.03,11.28h-.44l-6.3-5.28h0l5.72-6.01Zm-10.55,11.28l3.52-3.8,4.69,3.8h-8.21Zm-2.64-.29c-.29-2.78-.59-6-1.03-9.09l5.57,4.4h0l-4.54,4.69Zm13.34,3.08l-5.42,5.86-7.18-5.86h12.61Zm1.46,1.46c.3,3.66.88,7.33,1.17,10.85l-6.59-5.28h0l5.42-5.57Zm-11.43,12.89l-.15-.44v-.15l4.98-5.28,7.47,5.86h-12.31Zm-.88-2.78c-.59-2.64-1.03-5.72-1.61-8.94l5.72,4.55h0l-4.1,4.4Zm-19.64-228.63l3.37,2.93,3.66-2.93h-7.03Zm-1.03.88l-.15,5.86,3.51-2.79h0l-3.37-3.08Zm7.03,6.3l-2.78-2.49-2.79,2.49h5.57Zm1.61-.44v-5.72l-3.22,2.79h0l3.22,2.93Zm-8.94,3.37v.15l4.11,4.69,4.83-4.84h-8.94Zm0,2.64l-.15,6.89,3.22-3.52h0l-3.08-3.37Zm-.29,9.23h8.79l-4.55-4.84-4.24,4.54h0v.29Zm9.23-1.76v-8.21l-3.8,3.96h0l3.8,4.25Zm-9.08,4.54l3.96,4.84,4.84-4.84h-8.79Zm-.44,2.05l-.15,7.33,3.52-3.52h0l-3.37-3.81Zm-.29,10.11h8.79l-4.25-5.13-4.54,4.39h0v.74Zm9.81-1.17v-9.23l-4.1,4.1h0l4.1,5.13Zm-9.81,3.96l4.54,4.98,5.27-4.98h-9.81Zm-.15,2.2l-.29,7.48,3.81-3.52h0l-3.51-3.96Zm8.64,9.68l-4.11-4.69-4.83,4.69h8.94Zm1.31-.88v-8.94l-4.24,4.1h0l4.24,4.84Zm-10.54,5.72l-.3,8.06,4.4-3.81h0l-4.1-4.25Zm-.45,10.11h10.41l-4.84-4.83-5.57,4.69h0v.15Zm10.99-1.61v-7.91l-4.24,3.66h0l4.24,4.25Zm-10.84,4.4l4.84,4.83,5.72-4.83h-10.55Zm-.29,1.9l-.44,7.77,4.4-3.81h0l-3.96-3.96Zm-.59,10.26h10.55l-4.98-5.28-5.42,4.69h0l-.15.59Zm11.58-1.47v-8.94l-4.84,4.11h0l4.84,4.83Zm-11.28,4.1l5.13,5.13,6.01-5.13h-11.14Zm-.44,1.76l-.44,8.5,4.69-4.11h0l-4.25-4.4Zm10.26,10.26l-4.84-4.84-5.86,4.84h10.7Zm1.17-1.03v-1.76l.15-2.34v-5.13l-4.98,4.4h0l4.84,4.84Zm-10.7,3.81l4.69,4.69,4.98-4.69h-9.67Zm-1.46,1.32l-.44,9.09,5.13-4.54h0l-4.69-4.54Zm11.14,10.84l-5.42-5.28-5.71,5.28h11.14Zm.73-1.9l.15-2.2v-3.81l.15-2.93-4.98,4.4h0l4.69,4.54Zm-10.84,4.69l4.25,4.25,5.13-4.25h-9.38Zm-1.76,1.03l-.44,8.8,4.98-4.1h0l-4.54-4.69Zm10.85,10.99l-5.13-5.13-5.86,5.13h10.99Zm1.32-1.46l.14-7.03.29-2.2-5.28,4.4h0l4.84,4.83Zm-10.7,4.25l4.69,4.68,5.28-4.68h-9.97Zm-2.2.58l-.73,10.55,6.01-5.28h0l-5.28-5.27Zm11.14,11.43l-4.69-4.69-5.42,4.69h10.11Zm1.32-1.61l.15-2.78v-3.81l.15-.73v-1.03l-4.69,3.81h0l4.4,4.54Zm-10.99,4.4l4.4,4.25,4.98-4.25h-9.38Zm-2.64.29l-.59,10.41,6.01-4.98h0l-5.42-5.42Zm11.72,11.73l-5.13-4.98-5.86,4.98h10.99Zm1.31-1.47l.15-6.16v-1.17l.15-1.91-5.13,4.4h0l4.83,4.84Zm-11.72,4.25l4.11,4.54,5.72-4.54h-9.82Zm-2.05.73l-.74,9.53,5.28-4.54h0l-4.54-4.98Zm10.69,11.28l-4.68-4.84-6.01,4.84h10.69Zm2.2-.44c.15-3.37.44-6.89.59-10.55l-5.86,4.84h0l5.27,5.72Zm-11.28,3.37l4.25,4.24,5.57-4.24h-9.82Zm-2.79,0h-.15c-.15,3.66-.44,7.03-.88,10.7l6.45-5.13h0l-5.42-5.57Zm11.43,11.87l-4.54-4.98-6.31,4.98h10.84Zm1.76-1.02c.15-3.08.44-6.3.59-9.53l-5.42,4.4h0l4.84,5.13Zm-11.58,3.81l3.66,3.96,4.84-3.96h-8.5Zm-2.79,0h-.15c-.15,3.37-.59,6.6-.88,9.97l5.86-4.69h0l-4.84-5.27Zm11.43,12.17l-5.13-5.57-7.04,5.57h12.16Zm1.76-1.03c.3-3.51.74-7.18.88-10.99l-6.3,5.27h0l5.42,5.72Zm-12.6,3.82l4.84,4.98,6.15-4.98h-10.99Zm-2.05.73c-.44,3.52-.73,7.18-1.17,10.7l6.45-5.28h0l-5.27-5.42Zm10.11,10.7l-3.66-3.8-4.4,3.8h8.06Zm2.78,0c.58-3.07.88-6.45,1.17-9.82l-6.01,4.83h0l4.84,4.98Zm-13.48,2.79l5.42,5.86,7.18-5.86h-12.6Zm-1.03,1.9c-.3,3.37-.88,6.74-1.18,9.97l6.01-4.84h0l-4.83-5.13Zm11.43,12.46l.15-.15-5.42-5.72-7.33,5.86h12.61Zm.73-2.49c.58-2.79,1.17-6.01,1.61-9.67l-6.01,4.98h0l4.4,4.69Zm34.44,37.81l-6.89,5.86h16.42l-9.53-5.86Zm5.13-7.33l-5.13,4.55-7.18-4.55h12.31Zm-15.39,13.19h-.58l-1.76-13.19h1.32l9.53,6.16h0l-8.5,7.03Zm-48.51,0h18.03l-6.89-6.45h0l-11.14,6.45Zm6.74-13.19l4.54,4.25,7.33-4.25h-11.87Zm14.36,13.19l2.2-13.19-10.26,5.72h0l8.06,7.48Zm41.48,14.22l-9.09,8.94h22.72l-13.63-8.94Zm7.76-11.43l-7.76,7.77-11.87-7.77h19.64Zm-18.9,18.91l-2.64-16.27,11.43,7.33h0l-8.79,8.94Zm-60.23,1.47h24.32l-9.23-9.24h0l-15.09,9.24Zm7.62-20.37l7.47,7.48,12.02-7.48h-19.49Zm19.05,19.05l.15-1.17,2.49-15.68-12.01,7.47h0l9.38,9.38Zm-32.54,25.79h25.35l-9.67-9.53h0l-15.68,9.53Zm7.18-21.69l8.64,8.35,13.93-8.35h-22.57Zm21.4,20.66l2.78-17.73-13.04,7.92h0l10.26,9.82Zm55.25-8.5l-9.97,9.53h25.65l-15.68-9.53Zm8.5-12.16l-8.79,8.35-13.78-8.35h22.57Zm-22.28,21.4l-2.93-18.91,14.07,8.36h0l-11.14,10.55Zm-49.83,34c.88-.29,1.91-.73,2.94-1.17v-4.54h0l-2.94,5.72Zm6.01-2.35v-9.38l-1.9,3.66v6.45h0l1.9-.73Zm3.23-1.03v-13.04h-.73l-1.17,2.34v11.43h0l1.9-.73Zm3.08-.88v-12.16h-1.76v12.6h0l1.76-.44Zm3.22-.73v-11.43h-1.9v12.01h0l1.9-.58Zm3.23-.44v-10.99h-1.91v11.28h0l1.91-.29Zm3.07-.59v-10.41h-1.91v10.7h0l1.91-.29Zm3.08-.29v-10.11h-1.91v10.26h0l1.91-.14Zm3.07-.15v-9.97h-1.9v10.11h0l1.9-.15Zm3.23,0v-9.97h-1.9v9.97h1.9Zm3.08,0v-9.97h-1.76v9.97h1.76Zm3.22.15v-10.11h-1.9v9.97h0l1.9.15Zm3.22.29v-10.41h-1.91v10.26h0l1.91.15Zm3.08.29v-10.7h-1.91v10.55h0l1.91.15Zm3.08.73v-11.43h-1.91v11.14h0l1.91.29Zm3.08.73v-12.16h-1.91v11.58h0l1.91.58Zm3.22.88v-12.02l-.58-1.03h-1.32v12.46h0l1.91.58Zm3.08.88v-6.74l-1.76-3.67v9.82h0l1.76.59Zm-87.79,50.41l-16.41,7.33,7.62,9.67h0l8.8-17Zm1.32-5.13h-27.99l7.47,9.23h0l20.52-9.23Zm-38.25,17l13.92-6.01-6.45-8.21h0l-7.47,14.22Zm-2.93,5.86l-1.32,2.64h29.9l-8.94-11.28h0l-19.64,8.65Zm50.41-38.25l-14.07,4.98,8.5,6h0l5.57-10.99Zm-2.78-2.64h-22.57l7.91,5.42h0l14.66-5.42Zm-32.53,11.72l14.36-5.13-8.65-6.01h0l-5.72,11.14Zm.59,3.52h26.23l-8.94-6.3h0l-17.29,6.3Zm26.23-23.89l-16.27,5.86h24.76l-8.5-5.86Zm17.73-6.3l-14.21,5.12,8.5,5.87h0l5.72-10.99Zm-1.76-3.08h-24.33l8.35,5.72h0l15.98-5.72Zm-33.56,12.16l14.06-5.13-8.35-5.86h0l-5.72,10.99Zm41.03-20.23h-30.63l-2.79,5.42h30.63l2.78-5.42Zm98.63,49.25l16.85,7.33-7.77,9.97h0l-9.09-17.3Zm-1.02-5.13h27.99l-7.33,9.23h0l-20.67-9.23Zm37.81,16.85l-13.34-5.86,6.16-8.06h0l7.18,13.92Zm3.08,5.86l1.32,2.78h-29.61l9.09-11.28h0l19.2,8.5Zm-44.7-26.97l-5.72-11.28,14.37,5.13-8.65,6.15,2.2,4.25h0l-2.2-4.25Zm-2.64-13.78h22.57l-7.77,5.42h0l-14.81-5.42Zm32.24,11.72l-14.07-5.13,8.36-5.86h0l5.71,10.99Zm-.14,3.52h-26.38l9.09-6.3h0l17.29,6.3Zm-26.38-23.89l16.27,5.86h-24.77l8.5-5.86Zm-119.74-32.53h30.63l-6.3,12.31h-30.63l6.3-12.31Zm101.71,26.23l14.65,5.12-8.64,6.01h0l-6.01-11.14Zm2.2-3.08h24.18l-8.35,5.72h0l-15.83-5.72Zm33.27,12.02l-13.92-4.99,8.35-5.72h0l5.57,10.7Zm-41.18-20.08h30.78l2.78,5.42h-30.78l-2.78-5.42Zm-7.77-15.09h30.63l6.45,12.31h-30.63l-6.45-12.31Zm-16.56-44.26l4.11,26.97h-35.62l8.06-52.76h19.2l4.25,25.79Zm-21.98-33.86h16.56l.88,5.28h-18.32l.88-5.28Zm36.79,92.48c1.17.44,2.2.73,3.22,1.32l-3.22-6.16v4.83h0Zm-64.05,14.37c11.14-6.89,23.89-10.85,37.96-10.85,12.75,0,24.77,3.52,35.17,9.38l-1.46-2.94c-9.97-5.42-21.54-8.49-33.71-8.49-13.33,0-25.65,3.51-36.35,9.81l-1.61,3.08h0Z"/>
          <path class="cls-8" d="m1127.88,470.27l-.44.66-.66-.66v91.47h80.45v-91.47l-.66.66-.44-.66v11.02h-3.74v-28.21l-.66.44-.66-.44v9.25l-.89-1.32-.88,1.55-1.1,1.54-.88-1.54-.88-1.55-1.1,1.55-.88,1.54-1.1-1.54-.89-1.55-1.1,1.55-.88,1.54-.88-1.54-1.1-1.55-.88,1.55-1.1,1.54-.88-1.54-1.11-1.55-.88,1.55-1.1,1.54-.88-1.54-.88-1.55-1.1,1.55-.88,1.54-1.1-1.54-.88-1.55-1.11,1.55-.88,1.54-.88-1.54-1.11-1.55-.88,1.55-1.1,1.54-.88-1.54-1.1-1.55-.88,1.55-1.11,1.54-.88-1.54-.88-1.55-1.1,1.55-.88,1.54-1.1-1.54-.88-1.55-1.1,1.55-.89,1.54-.88-1.54-1.1-1.55-.88,1.55-1.1,1.54-.88-1.54-1.1-1.55-.88,1.55-1.11,1.54-.89-1.54-.88-1.55-1.1,1.55-.88,1.54-1.1-1.54-.88-1.55-1.1,1.55-.88,1.54-.89-1.54-1.1-1.55-.88,1.55-1.1,1.54-.88-1.54-1.1-1.55-.88,1.55-1.1,1.54-.89-1.54-.88-1.55-.88,1.1v-9.03l-.66.44-.44-.44v28.21h-3.96v-11.02Zm-2.43,304.84h85.31v50.91h-85.31v-50.91Zm5.51-3.97v-98.53h72.74v98.53h-2.87v-47.61h-3.52v47.61h-2.87v-47.61h-3.53v47.61h-2.87v-47.61h-3.53v47.61h-2.64v-47.61h-3.75v47.61h-2.65v-47.61h-3.53v47.61h-2.86v-47.61h-3.53v47.61h-2.86v-47.61h-3.53v47.61h-2.86v-47.61h-3.53v47.61h-2.87v-47.61h-3.52v47.61h-2.64v-47.61h-3.75v47.61h-2.65v-47.61h-3.53v47.61h-2.87Zm6.39-96.32h-3.53v46.06h3.53v-46.06Zm63.48,0h-3.52v46.06h3.52v-46.06Zm-6.39,0h-3.53v46.06h3.53v-46.06Zm-6.4,0h-3.53v46.06h3.53v-46.06Zm-6.17,0h-3.75v46.06h3.75v-46.06Zm-6.39,0h-3.53v46.06h3.53v-46.06Zm-6.39,0h-3.53v46.06h3.53v-46.06Zm-6.39,0h-3.53v46.06h3.53v-46.06Zm-6.39,0h-3.53v46.06h3.53v-46.06Zm-6.4,0h-3.52v46.06h3.52v-46.06Zm-6.17,0h-3.75v46.06h3.75v-46.06Zm57.97-221.52l2.42-2.64-2.42-2.21-2.65,2.21,2.65,2.64Zm-69.44,0l2.42-2.64-2.42-2.21-2.42,2.21,2.42,2.64Zm-4.84,17.19l2.2-2.64-2.2-2.21-2.43,2.21,2.43,2.64Zm79.12,0l2.42-2.64-2.42-2.21-2.2,2.21,2.2,2.64Zm-4.84-22.49l-.66.66v-1.54h1.32v1.54l-.66-.66Zm-69.44,0l-.44.66v-1.54h1.11v1.54l-.66-.66Zm74.28,17.19l-.44.44v-1.54h1.1v1.76l-.66-.66Zm-79.12,0l-.66.66v-1.76h1.1v1.54l-.44-.44Zm22.26-29.31l-10.58,26.22.22.22.22.44,1.98-2.87,1.54,2.42.45.44.44-.44,1.54-2.42,1.98,2.87.22-.44,1.76-2.42,1.76,3.09.45-.66,1.54-2.64,1.54,2.64.44.66,1.98-3.09,1.54,2.42.44.44.44-.44,1.55-2.42,1.98,2.87.22-.44,1.76-2.42,1.54,2.42.22.66.66-.66,1.33-2.64,1.54,2.64.44.66.44-.66,1.54-2.42,1.54,2.42.44.44.44-.44,1.55-2.42,1.54,2.42.44.44.22-.44,1.76-2.42,1.76,3.09.66-.66,1.32-2.64,1.55,2.64.44.66,1.98-3.09,1.54,2.42.44.44.44-.44,1.54-2.42,1.99,2.87.22-.44.22-.22-10.59-26.22h-34.6Zm32.18,18.29l1.76-3.3,1.99,3.3.88-.44-2.87-4.63-.66.88-2.2,3.75,1.1.44Zm-16.75-8.81l1.76-3.31,1.99,3.31.88-.44-2.87-4.85-.44.88-2.21,3.97.89.44Zm-10.8,0l1.76-3.31,1.98,3.31.88-.44-2.86-4.85-.44.88-2.42,3.97,1.1.44Zm-5.73,8.81l1.98-3.3,1.99,3.3.66-.44-2.65-4.63-.44.88-2.42,3.75.89.44Zm11.01,0l1.99-3.3,1.98,3.3.88-.44-2.86-4.63-.66.88-1.99,3.75.66.44Zm11.25,0l1.76-3.3,1.98,3.3.88-.44-2.87-4.63-.66.88-1.98,3.75.88.44Zm4.18-8.81l1.77-3.31,1.98,3.31.88-.44-2.86-4.85-.66.88-1.99,3.97.88.44Zm16.09,33.5h7.93v-10.8h-7.93v10.8Zm-55.1,0h7.72v-10.8h-7.72v10.8Zm10.8,0h8.16v-10.8h-8.16v10.8Zm11.02,0h8.16v-10.8h-8.16v10.8Zm11.03,0h8.15v-10.8h-8.15v10.8Zm11.24,0h7.93v-10.8h-7.93v10.8Zm-16.31-114.4h6.39v4.63h-6.39v-4.63Zm23.14,42.54l2.42-2.42-2.42-2.42-2.43,2.42,2.43,2.42Zm-39.9,0l2.42-2.42-2.42-2.42-2.42,2.42,2.42,2.42Zm.66,8.15v-7.72l-.66.44-.66-.44v10.14h0v16.98h41.22v-16.98h0v-10.14l-.66.44-.66-.44v7.72l-.66-1.1-1.11,1.76-.66,1.76h-.22l-.66-1.76-1.1-1.76-1.1,1.76-.66,1.76h0l-.88-1.76-.88-1.76-1.1,1.76-.89,1.76h-.21l-.67-1.76-1.1-1.76-.88,1.76-.88,1.76h-.22l-.66-1.76-1.1-1.76-.88,1.76-.88,1.76h-.22l-.66-1.76-1.11-1.76-.88,1.76-.88,1.76h-.22l-.66-1.76-1.1-1.76-.88,1.76-.88,1.76h0l-.88-1.76-1.11-1.76-.88,1.76-.88,1.76h0l-.88-1.76-.88-1.76-1.1,1.76-.88,1.76h0l-.66-1.76-1.1-1.76-1.1,1.76-.67,1.76h-.22l-.88-1.76-.88-1.76-.66,1.1Zm19.18-53.34v1.99h.22c0-.66-.22-1.32-.22-1.99h0Zm-.44,7.94c-.88,6.17-14.76,42.1-14.32,42.76l1.55,3.09.22.44.44-.44,1.32-3.09,1.76,3.09.22.44,1.76-3.52,1.77,3.09.22.44,1.76-3.52,1.76,3.09.22.44.22-.44,1.54-3.09,1.77,3.09.22.44,1.76-3.52,1.76,3.09.22.44,1.76-3.52,1.77,3.09.21.44.23-.44,1.76-3.09,1.76,3.52.22-.44,1.76-3.09v.22c-4.85-14.33-11.9-27.77-14.33-42.98h-1.32Zm-1.32,21.37l1.76-3.3,1.99,3.3.88-.66-2.87-4.62-.44,1.1-2.21,3.53.89.66Zm8.38,18.75l1.76-3.54,1.99,3.54.88-.44-2.87-4.85-.66.88-1.98,3.97.88.44Zm-8.38,0l1.76-3.54,1.99,3.54.88-.44-2.87-4.85-.44.88-2.21,3.97.89.44Zm-8.38,0l1.98-3.54,1.77,3.54,1.1-.44-2.87-4.85-.66.88-2.2,3.97.88.44Zm13.23-9.05l1.98-3.52,1.76,3.52.88-.44-2.64-4.84-.66.88-2.2,3.97.88.44Zm-9.7,0l1.76-3.52,2.2,3.52.66-.44-2.86-4.84-.44.88-2.21,3.97.89.44Zm26.67.45l-.66.66v-1.55h1.32v1.55l-.66-.66Zm-39.9,0l-.66.66v-1.55h1.32v1.55l-.66-.66Zm32.18,30.63h6.17v-11.02h-6.17v11.02Zm-30.64,0h6.17v-11.02h-6.17v11.02Zm7.72,0h6.17v-11.02h-6.17v11.02Zm7.49,0h6.17v-11.02h-6.17v11.02Zm7.71,0h6.17v-11.02h-6.17v11.02Zm-34.61,184.93h-3.53v50.26h3.53v-50.26Zm63.7,0h-3.52v50.26h3.52v-50.26Zm-6.39,0h-3.53v50.26h3.53v-50.26Zm-6.4,0h-3.53v50.26h3.53v-50.26Zm-6.39,0h-3.52v50.26h3.52v-50.26Zm-6.39,0h-3.52v50.26h3.52v-50.26Zm-6.16,0h-3.75v50.26h3.75v-50.26Zm-6.4,0h-3.53v50.26h3.53v-50.26Zm-6.4,0h-3.52v50.26h3.52v-50.26Zm-6.39,0h-3.52v50.26h3.52v-50.26Zm-6.39,0h-3.53v50.26h3.53v-50.26Zm-6.39-48.94h-3.53v46.28h3.53v-46.28Zm63.7,0h-3.52v46.28h3.52v-46.28Zm-6.39,0h-3.53v46.28h3.53v-46.28Zm-6.4,0h-3.53v46.28h3.53v-46.28Zm-6.39,0h-3.52v46.28h3.52v-46.28Zm-6.39,0h-3.52v46.28h3.52v-46.28Zm-6.16,0h-3.75v46.28h3.75v-46.28Zm-6.4,0h-3.53v46.28h3.53v-46.28Zm-6.4,0h-3.52v46.28h3.52v-46.28Zm-6.39,0h-3.52v46.28h3.52v-46.28Zm-6.39,0h-3.53v46.28h3.53v-46.28Zm-12.56,101.17h72.52v-103.15h-72.52v103.15Zm63.27-109.98h4.18v-4.19h-4.18v4.19Zm-57.97,0h4.18v-4.19h-4.18v4.19Zm5.29,0h4.19v-4.19h-4.19v4.19Zm5.29,0h4.18v-4.19h-4.18v4.19Zm5.29,0h4.19v-4.19h-4.19v4.19Zm5.28,0h4.19v-4.19h-4.19v4.19Zm5.3,0h4.18v-4.19h-4.18v4.19Zm5.28,0h4.19v-4.19h-4.19v4.19Zm5.29,0h4.19v-4.19h-4.19v4.19Zm5.29,0h3.97v-4.19h-3.97v4.19Zm5.07,0h4.19v-4.19h-4.19v4.19Zm5.29,0h4.19v-4.19h-4.19v4.19Zm-21.82-35.06h-.44c-1.32.89-2.21,1.77-2.64,3.31-.22,0-.22.22-.44,0h-.22c0-.22-.22-.44-.44-.44,0-.22-.22-.22-.66-.22,0,0-.22-.22-.22-.44s0-.44-.22-.44c0-.22,0-.44-.44-.44-.22,0-.22-.22-.22-.44s.22-.23.22-.23c1.32-.44,2.64-1.32,3.3-2.42,0-.22-.22-.44-.22-.88s.22-.89.44-1.32l-2.64-2.64-.22.22c-.22.22-.88.22-1.32,0-.44-.44-.44-1.55-.44-2.65l-.67-.66h-.88v-1.32h1.55v1.11l.44.44c1.1,0,2.2.22,2.64.66.44.21.44.88,0,1.1,0,.23-.22.45-.44.45l2.64,2.42c.44-.22,1.1-.44,1.54-.44s.88,0,1.11.22l16.75-15.65c0-.22.22-.22.22,0h.44v.44l-15.87,16.97v.66c0,.44,0,1.1-.44,1.32l1.76,1.54c.66,0,1.32.22,1.76.67.44.44.44.88,0,1.1q-.66.66-1.1,1.32c-.44.22-.88.22-1.1,0-.44-.44-.44-1.1-.66-1.98l-1.55-1.55c-.44,0-.88.21-1.32.21h0Zm.66-28.43h1.99-.22l-.22,2.86h-1.55v-2.86Zm3.09.22h0c.88,0,1.76.22,2.42.44h0l-.66,2.86c-.66-.22-1.32-.22-1.98-.44l.22-2.87Zm3.52.66h0c.66.22,1.32.43,1.99.66l-1.11,2.64c-.66,0-1.1-.22-1.54-.44l.66-2.86Zm2.87,1.1c.88.22,1.76.66,2.42,1.1l-1.54,2.43c-.66-.22-1.32-.44-1.99-.88l1.11-2.65Zm3.3,1.54c.66.44,1.1.89,1.76,1.11l-1.76,2.42c-.44-.22-.88-.44-1.32-.88l1.32-2.65Zm2.64,1.99h0c.66.44,1.1.66,1.54,1.1.45,0,.89,0,1.11.44l.66.22v1.1c.22.44.44.66.88.88l-2.42,1.98c-.23-.22-.23-.44-.45-.66l-.44.44c.22.22.22.43.44.43h0v.22c.67.66,1.33,1.55,1.77,2.43l-7.94,4.62c-.22-.22-.44-.66-.66-.88l-.44.44c1.76,1.98,2.64,4.63,2.64,7.5,0,3.53-1.32,6.61-3.75,9.03-2.42,2.21-5.5,3.76-9.03,3.76-3.3,0-6.39-1.55-8.82-3.76-2.2-2.42-3.74-5.5-3.74-9.03,0-3.09,1.32-6.17,3.09-8.16v-1.1c-.44.66-1.1,1.55-1.54,2.2l-7.93-4.62c.22-.66.66-1.1,1.1-1.77l.22-.22v-.22c.66-.66,1.32-1.32,1.77-1.99.67-.43,1.1-.88,1.55-1.32h0l.22-.22c.88-.66,1.54-1.1,2.42-1.77h.22l4.41,8.16c-.89.44-1.55,1.1-2.21,1.76h.88c2.21-1.98,5.29-3.3,8.38-3.3s5.73.88,7.72,2.64l.44-.44c-.22-.22-.66-.44-1.1-.66l4.63-8.16h.22c.66.44,1.1.89,1.76,1.32l.22.22h.22c.22.22.66.66.88.88l.44-.44c-.44-.22-.66-.44-1.11-.88l1.76-2.2Zm1.99,5.94l2.2-1.54h0l-1.98,1.77h-.22v-.22Zm2.64-1.1h.22c.44.44.88,1.32,1.32,1.98h0l-1.32.67-1.32.88c-.22-.66-.66-1.32-1.1-1.77l2.2-1.76Zm2.2,3.09h0c.22.44.66,1.1.88,1.54l-2.87,1.32c-.22-.66-.44-1.1-.66-1.54l2.64-1.32Zm1.32,2.65h0c.22.88.66,1.54.88,2.42h-.22l-2.64.88c-.22-.66-.44-1.32-.66-1.99l2.64-1.31Zm.66,3.08h0l-2.64.66h0l2.64-.66Zm.44.66v-.21c.22.66.22,1.33.44,1.98l-2.86.44c-.22-.66-.22-1.1-.44-1.55l2.86-.66Zm.22,2.21v.22h0l-2.64.22h0l2.64-.44Zm.22.66c.23.88.23,1.54.23,2.42h-2.87c0-.66,0-1.32-.22-1.98l2.86-.44Zm.23,3.75v1.76h0l-3.09-.22c.22-.44.22-1.1.22-1.54h2.87Zm-.23,3.09h0c0,.88-.22,1.54-.44,2.42h0l-2.86-.66c.22-.66.22-1.54.44-2.21l2.86.45Zm-.88,2.86h0l-2.64-.66h0l2.64.66Zm0,.67h.22c-.22.66-.44,1.32-.66,1.98v-.22l-2.86-1.1c.22-.43.44-.88.66-1.32l2.64.67Zm-1.1,2.2v.22h0l-2.42-1.1h0l2.42.88Zm0,.66l.22.22c-.44.66-.67,1.55-1.1,2.21h0l-2.64-1.55c.44-.66.66-1.32.88-1.99l2.64,1.1Zm-1.54,3.31h0c-.22.66-.66,1.1-.88,1.54h0l-2.64-1.76c.44-.22.66-.66.88-1.1l2.64,1.32Zm-1.76,2.64h0c-.44.66-1.1,1.32-1.54,1.98h-.22l-1.99-2.2c.44-.66.88-1.1,1.33-1.76l2.42,1.98Zm-2.42,2.64h0c-.45.44-.89.88-1.33,1.33h-.22l-1.76-2.43c.44-.22.66-.66,1.1-.88l2.21,1.99Zm-2.43,1.98h0c-.66.66-1.32,1.1-1.98,1.54h-.22l-1.32-2.65c.66-.44,1.1-.66,1.76-1.1l1.76,2.21Zm-3.09,1.99h0c-.44.43-1.1.66-1.76.88l-1.1-2.64c.44-.22.88-.44,1.32-.66l1.54,2.42Zm-2.86,1.54c-.67.22-1.55.44-2.43.66h0l-.66-2.87c.66-.22,1.32-.44,1.98-.66l1.11,2.86Zm-2.87.44h-.22l-.44-2.42h0l.66,2.42Zm-.66.66h0c-.44,0-1.1.22-1.76.22h0l-.44-2.86c.44,0,1.1-.22,1.55-.22l.66,2.86Zm-2.42,0h0l-.44-2.42h.22l.22,2.42Zm-.44.44h0c-.88.22-1.76.22-2.65.22v-2.87c.66,0,1.55-.22,2.21-.22l.44,2.87Zm-3.75.22h-1.98v-.22l.44-2.87c.44.22,1.1.22,1.54.22v2.87Zm-3.08-.22h0c-.88-.22-1.76-.22-2.42-.44h0l.66-2.86c.66.22,1.32.22,1.98.44l-.22,2.87Zm-2.42-3.53l-.44,2.42h-.22l.66-2.42h0Zm-1.33,2.64h0c-.66,0-1.1-.22-1.76-.44v-.22l1.1-2.65c.66.22,1.11.44,1.55.44l-.89,2.87Zm-2.2-1.1h0l.88-2.42h.22l-1.1,2.42Zm-.66,0v.22c-.66-.44-1.54-.88-2.2-1.1v-.22l1.54-2.42c.44.22,1.1.66,1.76.88l-1.1,2.64Zm-3.3-1.54h0c-.44-.44-1.1-.66-1.54-1.1l1.76-2.43c.44.44.88.66,1.32.88l-1.54,2.65Zm-1.76-1.76h0l1.54-1.99h0l-1.54,1.99Zm-.67,0h0c-.67-.44-1.32-1.11-1.98-1.76h0l2.2-1.99c.45.44.89.88,1.55,1.32l-1.77,2.43Zm-2.87-2.65c-.44-.43-.88-.88-1.1-1.32l2.42-1.76c.22.22.44.66.88,1.1l-2.2,1.98Zm-1.76-2.2h-.22c-.44-.66-.89-1.32-1.32-2.2l2.64-1.54c.22.66.66,1.32,1.1,1.77l-2.2,1.98Zm-1.99-3.08h-.22c-.22-.66-.44-1.11-.89-1.77l2.87-1.1c.22.44.44.88.66,1.32l-2.42,1.55Zm-1.55-2.87c-.22-.66-.44-1.54-.88-2.42h.22l2.87-.67c0,.67.44,1.32.66,1.99l-2.87,1.1Zm-1.1-3.52h0c-.22-.66-.22-1.32-.44-1.76l3.09-.44c0,.44.22,1.1.22,1.54l-2.87.66Zm0-2.42h-.22l2.65-.45h0l-2.43.45Zm-.44-.67c-.22-.88-.22-1.54-.22-2.42h2.87c0,.66,0,1.32.22,1.98l-2.87.44Zm-.22-3.75v-1.76h0l3.09.44c-.22.44-.22.89-.22,1.32h-2.87Zm.44-2.2v-.22h0l2.65.22v.22h0l-2.65-.22Zm-.22-.66h0c0-.89.22-1.77.44-2.65v.21l2.87.66c-.22.67-.22,1.33-.44,1.99l-2.87-.22Zm.88-3.75h0c0-.66.22-1.11.44-1.77h0l2.87,1.1c-.22.44-.44.88-.66,1.54l-2.65-.88Zm1.1-2.21v-.22h0l2.43,1.1h0l-2.43-.88Zm-.22-.66c.45-.66.67-1.54,1.11-2.2h.22l2.42,1.32c-.44.66-.66,1.32-.88,1.98l-2.87-1.1Zm1.77-3.31c.22-.44.66-1.1,1.1-1.54l2.2,1.77c-.22.44-.44.88-.66,1.32l-2.64-1.55Zm1.76-2.42v-.22c.44-.44,1.1-1.1,1.54-1.76l2.2,1.98c-.43.66-.88,1.11-1.32,1.54l-2.42-1.54Zm2.42-2.86c.44-.44,1.1-.88,1.54-1.32l1.77,2.42c-.44.22-.89.66-1.11,1.1l-2.2-2.2Zm3.53.66l-1.55-1.98h0l1.77,1.98h-.22Zm-1.11-2.64c.66-.44,1.33-.89,1.99-1.33l1.54,2.44c-.66.43-1.1.88-1.76,1.32l-1.77-2.42Zm3.09-1.99c.66-.44,1.1-.66,1.77-.88h0l1.1,2.65c-.44.22-.88.44-1.32.88l-1.54-2.65Zm2.86-1.32h0c.66-.22,1.54-.66,2.2-.88h0l.89,2.86c-.66.22-1.33.44-1.99.67l-1.1-2.65Zm3.53-1.1h0c.44-.22,1.1-.22,1.76-.44l.44,2.87c-.44.22-1.1.22-1.54.44l-.66-2.86Zm2.42-.22h0l.44,2.64h-.22l-.22-2.64Zm.44-.44h2.64v2.86c-.66,0-1.54,0-2.21.22l-.43-3.08Zm9.25,14.11c-1.54-.88-3.53-1.32-5.51-1.54v-9.27h1.55v.22h1.1c.66.22,1.32.22,1.98.44h.44l.44.22h.22c.66.23,1.1.45,1.76.67h0l.66.22h.22c.67.44,1.11.66,1.77,1.1l-4.63,7.93Zm-6.61-1.54c-1.98.22-3.74.66-5.51,1.54l-4.63-7.93c.44-.22.88-.66,1.32-.66h0l.22-.22h0c.22,0,.44-.22.66-.22h.22v-.22c.66-.22,1.33-.44,1.99-.67h.22l.66-.22h.22c.44-.22.88-.22,1.54-.44h1.1c.66-.22,1.32-.22,1.98-.22v9.27Zm-11.24,7.26c-.66,1.55-1.32,3.53-1.32,5.51h-9.26c0-1.76.22-3.3.66-4.85h0c.22-.88.44-1.76.66-2.42h0v-.22c.22,0,.22-.22.22-.44l.22-.22h0c.22-.66.44-1.32.88-1.99l7.94,4.62Zm-1.32,6.62c.22,1.98.66,3.75,1.54,5.51l-8.16,4.62c-.88-1.76-1.54-3.52-1.98-5.5h0c-.22-.89-.44-1.76-.44-2.66h0c-.22-.66-.22-1.31-.22-1.98h9.26Zm-5.95,11.02h0l7.93-4.63c.44.88,1.1,1.54,1.76,2.2.66.66,1.54,1.32,2.21,1.76l-4.63,8.15c-.66-.44-1.1-.66-1.76-1.1l-.22-.22v-.22h-.22c-.44-.44-.88-.88-1.55-1.32h.23l-.45-.22h0l-.22-.44-.44-.22c-.22-.21-.44-.66-.88-1.1h0l-.22-.22-.44-.44c-.44-.66-.88-1.32-1.1-1.99h0Zm13,0c1.76.89,3.53,1.32,5.51,1.54v9.26c-.66,0-1.1,0-1.76-.22h-.44c-.88,0-1.54-.22-2.42-.44h-.22c-.22,0-.66-.22-.88-.22h-.22c-.44-.22-.89-.43-1.33-.43h0l-.44-.22-.22-.22-.44-.22v.22c-.66-.22-1.32-.66-1.76-.88l4.63-8.16Zm6.61,1.54c1.99-.22,3.75-.66,5.51-1.54l4.63,8.16c-.66.22-1.33.66-1.99.88h-.22c-1.1.44-2.2.88-3.3,1.1h0c-.44.22-.88.22-1.54.44h-1.1c-.65.22-1.33.22-1.99.22v-9.26Zm11.25,5.95h0l-4.85-7.93c.88-.66,1.54-1.32,2.21-1.98.88-.66,1.32-1.32,1.98-2.2l8.16,4.63h-.22c-.22.44-.44.89-.66,1.32l-.22.22-.44.66h-.23.23c-.45.66-.89,1.1-1.33,1.54l-.44.22-.44.44-.22.22h.22c-.44.44-.88.66-1.1,1.1h-.22v.22l-.66.22-.22.22h.22c-.66.44-1.32.88-1.76,1.1h0Zm-.22-13c.88-1.76,1.54-3.54,1.54-5.51h9.26c0,1.54-.22,3.09-.66,4.63h0c0,.44,0,.66-.22,1.1h0c-.22.66-.44,1.54-.66,2.2h-.22c-.22.88-.44,1.54-.88,2.2l-8.15-4.62Zm1.54-6.62c0-1.98-.66-3.74-1.54-5.51l8.15-4.62c.22.44.44.89.66,1.32h0c0,.22.22.22.22.44v.22l.22.44h0c.22.44.44,1.1.66,1.77h0v.22c.22.21.22.43.22.88h0c.22.45.22,1.11.44,1.55h0v1.1h0c.22.66.22,1.54.22,2.2h-9.26Zm-42.98.44c0-16.53,13.44-29.98,29.76-29.98h-29.76v29.98Zm23.81-22.27l-.66-2.64h.22l.44,2.64Zm-10.14,5.95l-.22.22-1.76-1.98h.22l1.76,1.76Zm-5.94,10.35l-2.65-.66h0l2.65.66Zm0,11.91h0l-2.65.66h0l2.65-.66Zm5.72,10.36h.22l-1.76,1.98-.22-.22h0l1.76-1.76Zm32.62,0h.22l1.77,1.76-.22.22h0l-1.77-1.98Zm-10.14-38.58l.44-2.64h.22l-.66,2.64Zm-15.21,1.11l-1.1-2.43h0l1.1,2.43Zm-9.25,7.27v.22l-2.2-1.76h0l2.2,1.54Zm-2.65,22.92h0l-2.65,1.1h0l2.65-1.1Zm3.08,5.29l-2.2,1.54h0l2.2-1.54Zm15.21,8.6l-.22,2.64h0l.22-2.64Zm11.91-1.76l1.1,2.42-.22.22h0l-.88-2.64Zm5.06-3.09l1.76,1.99v.22h0l-1.76-2.21Zm4.19-4.18l2.2,1.54h0l-2.2-1.54Zm4.4-11.03l2.64.22h0l-2.64-.22Zm-1.54-11.9l2.42-1.1h0l-2.42,1.1Zm-7.49-9.25v-.22l1.54-2.2v.22h0l-1.54,2.21Zm-5.07-2.87l-.22-.22,1.11-2.43h0l-.89,2.65Zm-5.95-1.55l.22-2.64h0l-.22,2.64Zm-2.87-7.27c16.53,0,29.98,13.45,29.98,29.98v-29.98h-29.98Zm29.98,29.98c0,16.53-13.45,29.98-29.98,29.98h29.98v-29.98h0Zm-29.98,29.98c-16.31,0-29.76-13.45-29.76-29.98v29.98h29.76Zm0-1.54c-15.43,0-28.21-12.79-28.21-28.44s12.78-28.21,28.21-28.21,28.43,12.78,28.43,28.21-12.78,28.44-28.43,28.44h0Zm-25.13-1.77c-1.1,0-2.2-.88-2.2-2.42,0-1.1,1.1-1.98,2.2-1.98,1.32,0,2.21.88,2.21,1.98,0,1.54-.89,2.42-2.21,2.42h0Zm0-49.37c-1.1,0-2.2-1.1-2.2-2.2,0-1.32,1.1-2.2,2.2-2.2,1.32,0,2.21.88,2.21,2.2,0,1.1-.89,2.2-2.21,2.2h0Zm50.04,0c-1.32,0-2.2-1.1-2.2-2.2,0-1.32.88-2.2,2.2-2.2s2.21.88,2.21,2.2c0,1.1-.88,2.2-2.21,2.2h0Zm0,49.37c-1.32,0-2.2-.88-2.2-2.42,0-1.1.88-1.98,2.2-1.98s2.21.88,2.21,1.98c0,1.54-.88,2.42-2.21,2.42h0Zm5.95-57.53v61.72h-61.49v-61.72h61.49Zm-61.71-2.2h4.18v-4.4h-4.18v4.4Zm57.97,0h4.18v-4.4h-4.18v4.4Zm-5.29,0h4.19v-4.4h-4.19v4.4Zm-5.29,0h4.19v-4.4h-4.19v4.4Zm-5.07,0h3.97v-4.4h-3.97v4.4Zm-5.29,0h4.19v-4.4h-4.19v4.4Zm-5.29,0h4.19v-4.4h-4.19v4.4Zm-5.28,0h4.18v-4.4h-4.18v4.4Zm-5.3,0h4.19v-4.4h-4.19v4.4Zm-5.28,0h4.19v-4.4h-4.19v4.4Zm-5.29,0h4.18v-4.4h-4.18v4.4Zm-5.29,0h4.19v-4.4h-4.19v4.4Zm59.29-4.4h-.88v74.72h.88v-74.72Zm4.41,0h-1.1v74.72h1.1v-74.72Zm-2.2,0h-1.1v74.72h1.1v-74.72Zm-68.56,0h-1.32v74.72h1.32v-74.72Zm-4.4,0h-1.1v74.72h1.1v-74.72Zm2.2,0h-1.1v74.72h1.1v-74.72Z"/>
          <path class="cls-8" d="m462.18,712.26v-3.49h30.63v-13.81h-7.15v-5.08c-10.31-1.43-20.63-3.33-30.62-5.55v-11.58c-3.96-.79-7.93-1.59-11.74-2.54v-9.53c-4.6-.79-9.04-1.74-13.49-2.69v-8.57c74.42,12.06,149.79,12.85,226.11,0v8.57c-4.44.95-9.04,1.9-13.48,2.69v9.53c-3.97.95-7.93,1.74-11.74,2.38v11.74c-10.32,2.07-20.63,3.81-30.62,5.24v5.39h-7.3v13.81h30.78v3.49h-6.5v4.76h-24.28v25.54h10.47l-7.14,2.54v80.92h-16.19v-81.08l-7.3-2.38h10.63v-25.54h-80.76v25.54h10.63l-7.46,2.54v80.92h-16.03v-81.08l-7.3-2.38h10.48v-25.54h-24.28v-4.76h-6.35Zm113.77-19.99c-8.73.64-17.3,1.11-25.87,1.27v15.23h33.16v-13.81h-7.3v-2.69h0Zm-73.47,16.5h33v-15.07c-8.57-.16-17.29-.48-25.71-1.27v2.54h-7.3v13.81Z"/>
          <polygon class="cls-7" points="767.36 507.22 767.36 435.62 775.02 435.62 775.02 388.78 781.8 388.78 781.8 355.19 797.93 326.48 797.93 286.61 800.44 286.61 800.44 326.48 816.57 355.19 816.57 388.78 823.34 388.78 823.34 435.62 831.01 435.62 831.01 507.22 845.44 507.22 845.44 568.36 907.32 568.36 907.32 507.22 921.76 507.22 921.76 435.62 929.42 435.62 929.42 388.78 936.19 388.78 936.19 355.19 952.32 326.48 952.32 286.61 954.83 286.61 954.83 326.48 970.96 355.19 970.96 388.78 977.74 388.78 977.74 435.62 985.4 435.62 985.4 507.22 999.83 507.22 999.83 826.02 907.32 826.02 907.32 592.23 845.44 592.23 845.44 826.02 752.93 826.02 752.93 507.22 767.36 507.22"/>
          <g>
            <path class="cls-7" d="m75.04,821.36v4.66h134.03v-4.66h-4.66s-5.06-164.03-62.31-164.18h0s-.03,0-.04,0-.03,0-.04,0h0c-57.25.16-62.31,164.19-62.31,164.19h-4.66Zm76.79-66.93h-19.54v-17.53c0-2.06,1.34-7.54,9.77-7.56,8.43.02,9.77,5.5,9.77,7.56v17.53Zm-25.21,66.93v-27.66c0-3.25,2.11-11.92,15.44-11.94,13.33.02,15.44,8.69,15.44,11.94v27.66h-30.87Z"/>
            <path class="cls-7" d="m46.44,749.7l14.1,14.1,2.5,2.5,63.28-63.28,10.72-10.72c1.35,1.14,3.07,1.86,4.97,1.86s3.62-.72,4.97-1.86l10.72,10.72-14.1,14.1,63.28,63.28,14.1-14.1,2.5-2.5-63.28-63.28-11.08-11.08c.39-.92.61-1.94.61-3,0-1.9-.71-3.62-1.86-4.97l12.33-12.33,14.1,14.1,63.28-63.28-14.1-14.1-2.5-2.5-63.28,63.28-12.69,12.69c-.92-.39-1.94-.61-3-.61s-2.08.22-3,.61l-12.69-12.69,14.1-14.1-63.28-63.28-14.1,14.1-2.5,2.5,63.28,63.28,12.33,12.33c-1.14,1.35-1.86,3.06-1.86,4.97,0,1.07.22,2.08.61,3l-11.08,11.08-14.1-14.1-63.28,63.28Zm69.36-94.26l4.49-4.49,3.58,3.58-4.49,4.49-3.58-3.58Zm-5.51-5.52l4.49-4.49,3.58,3.58-4.49,4.49-3.58-3.58Zm-5.51-5.51l4.49-4.49,3.58,3.58-4.49,4.49-3.58-3.58Zm-5.51-5.51l4.49-4.49,3.58,3.58-4.49,4.49-3.58-3.58Zm-5.52-5.52l4.49-4.49,3.58,3.58-4.49,4.49-3.58-3.58Zm-5.51-5.51l4.49-4.49,3.58,3.58-4.49,4.49-3.58-3.58Zm-5.52-5.52l4.49-4.49,3.58,3.58-4.49,4.49-3.58-3.58Zm-5.51-5.51l4.49-4.49,3.58,3.58-4.49,4.49-3.58-3.58Zm-5.51-5.52l4.49-4.49,3.58,3.58-4.49,4.49-3.58-3.58Zm-1.36-10.35l3.92,3.92-4.49,4.49-3.92-3.92,4.49-4.49Zm10.35-2.5l-4.49,4.49-3.92-3.92,4.49-4.49,3.92,3.92Zm5.51,5.51l-4.49,4.49-3.58-3.58,4.49-4.49,3.58,3.58Zm5.51,5.51l-4.49,4.49-3.58-3.58,4.49-4.49,3.58,3.58Zm5.52,5.52l-4.49,4.49-3.58-3.58,4.49-4.49,3.58,3.58Zm5.51,5.51l-4.49,4.49-3.58-3.58,4.49-4.49,3.58,3.58Zm5.51,5.51l-4.49,4.49-3.58-3.58,4.49-4.49,3.58,3.58Zm5.52,5.51l-4.49,4.49-3.58-3.58,4.49-4.49,3.58,3.58Zm5.51,5.52l-4.49,4.49-3.58-3.58,4.49-4.49,3.58,3.58Zm5.51,5.51l-4.49,4.49-3.58-3.58,4.49-4.49,3.58,3.58Zm5.51,5.52l-4.49,4.49-3.58-3.58,4.49-4.49,3.58,3.58Zm.34,9.32l-2.9-2.9,4.49-4.49,2.9,2.9-4.49,4.49Zm-6.42,6.42l-2.9-2.9,4.49-4.49,2.9,2.9-4.49,4.49Zm47.19-5.23l4.49,4.49-3.58,3.58-4.49-4.49,3.58-3.58Zm5.52-5.51l4.49,4.49-3.58,3.58-4.49-4.49,3.58-3.58Zm5.52-5.51l4.49,4.49-3.58,3.58-4.49-4.49,3.58-3.58Zm5.51-5.51l4.49,4.49-3.58,3.58-4.49-4.49,3.58-3.58Zm5.51-5.51l4.49,4.49-3.58,3.58-4.49-4.49,3.58-3.58Zm5.52-5.52l4.49,4.49-3.58,3.58-4.49-4.49,3.58-3.58Zm5.51-5.51l4.49,4.49-3.58,3.58-4.49-4.49,3.58-3.58Zm5.51-5.51l4.49,4.49-3.58,3.58-4.49-4.49,3.58-3.58Zm5.52-5.51l4.49,4.49-3.58,3.58-4.49-4.49,3.58-3.58Zm10.35-1.36l-3.92,3.92-4.49-4.49,3.92-3.92,4.49,4.49Zm2.5,10.35l-4.49-4.49,3.92-3.92,4.49,4.49-3.92,3.92Zm-5.52,5.51l-4.49-4.49,3.58-3.58,4.49,4.49-3.58,3.58Zm-5.51,5.51l-4.49-4.49,3.58-3.58,4.49,4.49-3.58,3.58Zm-5.51,5.52l-4.49-4.49,3.58-3.58,4.49,4.49-3.58,3.58Zm-5.52,5.51l-4.49-4.49,3.58-3.58,4.49,4.49-3.58,3.58Zm-5.51,5.51l-4.49-4.49,3.58-3.58,4.49,4.49-3.58,3.58Zm-5.51,5.51l-4.49-4.49,3.58-3.58,4.49,4.49-3.58,3.58Zm-5.51,5.52l-4.49-4.49,3.58-3.58,4.49,4.49-3.58,3.58Zm-5.51,5.51l-4.49-4.49,3.58-3.58,4.49,4.49-3.58,3.58Zm-5.51,5.52l-4.49-4.49,3.58-3.58,4.49,4.49-3.58,3.58Zm-9.32.34l2.9-2.9,4.49,4.49-2.9,2.9-4.49-4.49Zm-6.42-6.42l2.9-2.9,4.49,4.49-2.9,2.9-4.49-4.49Zm5.23,47.19l-4.49,4.49-3.58-3.58,4.49-4.49,3.58,3.58Zm5.51,5.51l-4.49,4.49-3.58-3.58,4.49-4.49,3.58,3.58Zm5.51,5.51l-4.49,4.49-3.58-3.58,4.49-4.49,3.58,3.58Zm5.52,5.51l-4.49,4.49-3.58-3.58,4.49-4.49,3.58,3.58Zm5.52,5.51l-4.49,4.49-3.58-3.58,4.49-4.49,3.58,3.58Zm5.51,5.51l-4.49,4.49-3.58-3.58,4.49-4.49,3.58,3.58Zm5.51,5.51l-4.49,4.49-3.58-3.58,4.49-4.49,3.58,3.58Zm5.52,5.51l-4.49,4.49-3.58-3.58,4.49-4.49,3.58,3.58Zm5.51,5.51l-4.49,4.49-3.58-3.58,4.49-4.49,3.58,3.58Zm1.36,10.35l-3.92-3.92,4.49-4.49,3.92,3.92-4.49,4.49Zm-10.35,2.5l4.49-4.49,3.92,3.92-4.49,4.49-3.92-3.92Zm-5.52-5.51l4.49-4.49,3.58,3.58-4.49,4.49-3.58-3.58Zm-5.51-5.52l4.49-4.49,3.58,3.58-4.49,4.49-3.58-3.58Zm-5.51-5.51l4.49-4.49,3.58,3.58-4.49,4.49-3.58-3.58Zm-5.52-5.51l4.49-4.49,3.58,3.58-4.49,4.49-3.58-3.58Zm-5.51-5.51l4.49-4.49,3.58,3.58-4.49,4.49-3.58-3.58Zm-5.52-5.51l4.49-4.49,3.58,3.58-4.49,4.49-3.58-3.58Zm-5.52-5.51l4.49-4.49,3.58,3.58-4.49,4.49-3.58-3.58Zm-5.51-5.51l4.49-4.49,3.58,3.58-4.49,4.49-3.58-3.58Zm-5.51-5.52l4.49-4.49,3.58,3.58-4.49,4.49-3.58-3.58Zm-.34-9.32l2.9,2.9-4.49,4.49-2.9-2.9,4.49-4.49Zm6.42-6.42l2.9,2.9-4.49,4.49-2.9-2.9,4.49-4.49Zm-98.64,34.85l4.49,4.49-3.58,3.58-4.49-4.49,3.58-3.58Zm5.52-5.51l4.49,4.49-3.58,3.58-4.49-4.49,3.58-3.58Zm5.51-5.51l4.49,4.49-3.58,3.58-4.49-4.49,3.58-3.58Zm5.51-5.51l4.49,4.49-3.58,3.58-4.49-4.49,3.58-3.58Zm5.52-5.51l4.49,4.49-3.58,3.58-4.49-4.49,3.58-3.58Zm5.51-5.51l4.49,4.49-3.58,3.58-4.49-4.49,3.58-3.58Zm5.52-5.51l4.49,4.49-3.58,3.58-4.49-4.49,3.58-3.58Zm5.51-5.51l4.49,4.49-3.58,3.58-4.49-4.49,3.58-3.58Zm5.51-5.51l4.49,4.49-3.58,3.58-4.49-4.49,3.58-3.58Zm9.32-.34l-2.9,2.9-4.49-4.49,2.9-2.9,4.49,4.49Zm3.52,9.32l-4.49-4.49,2.9-2.9,4.49,4.49-2.9,2.9Zm-5.51,5.51l-4.49-4.49,3.58-3.58,4.49,4.49-3.58,3.58Zm-5.51,5.52l-4.49-4.49,3.58-3.58,4.49,4.49-3.58,3.58Zm-5.52,5.51l-4.49-4.49,3.58-3.58,4.49,4.49-3.58,3.58Zm-5.51,5.51l-4.49-4.49,3.58-3.58,4.49,4.49-3.58,3.58Zm-5.52,5.51l-4.49-4.49,3.58-3.58,4.49,4.49-3.58,3.58Zm-5.51,5.52l-4.49-4.49,3.58-3.58,4.49,4.49-3.58,3.58Zm-5.51,5.51l-4.49-4.49,3.58-3.58,4.49,4.49-3.58,3.58Zm-5.51,5.51l-4.49-4.49,3.58-3.58,4.49,4.49-3.58,3.58Zm-5.52,5.52l-4.49-4.49,3.58-3.58,4.49,4.49-3.58,3.58Zm-10.35,1.36l3.92-3.92,4.49,4.49-3.92,3.92-4.49-4.49Zm-1.93-1.93l-4.49-4.49,3.92-3.92,4.49,4.49-3.92,3.92Z"/>
          </g>
        </g>
        <g>
          <path class="cls-8" d="m283.78,164.63c-6.65-10.01-6.8-18.68-.88-29.96-5.34-3.27-6.81.25-11.9,5-8.95,8.65-2.8,3.82-26.34,4.98-4.75.25-9.23.26-13.83.58.6-2.67,1.45-5.93,2.55-8.57l5.34-16.86c1.02-2.84,1.95-5.89,2.61-8.71-1.06.07-6.4.08-7.16.27-1.93.91-19.5,27.28-22.04,30.87-2.27,3.36-1.33,3.58-5.3,3.63-9.88.17-24.42-1.27-29.32,5.11-1.96,2.62,1.6,4.8,3.88,5.93,4.85,2.37,22.27,1.06,28.67.98,3.36,3.47,19.11,23.83,24.02,30.19,2.19,2.98,1.61,2.74,4.59,2.61,1.92-.06,3.33-.16,5.11-.27-1.57-7.37-12.14-28.14-12.27-33.18,6.41-.93,19.05-.28,27.44-1.42,9.24-1.12,4.92-1.9,12.16,4.23,8.35,6.77,6.99,6.71,12.69,4.62h0Z"/>
          <path class="cls-8" d="m289.4,148.75c2.94.37,2.05,4.13-.24,3.86l-3.86-.24c-2.73-.46-2.2-4.19.3-4l3.8.38Z"/>
          <path class="cls-8" d="m632.95,384.94c-1.21-2.06,2.13-4.27,3.51-1.8l.91,1.93c1.35,2.12-2.07,4.13-3.36,1.87l-1.06-1.99Z"/>
          <path class="cls-8" d="m625.47,371.14c-1.29-2.26,2.07-4.12,3.36-1.86l2.01,3.42c1.14,2.2-2.28,4.21-3.57,1.94l-1.8-3.5Z"/>
          <path class="cls-8" d="m617.52,357.66c-1.38-2.47,2.13-4.27,3.42-2.01l2.01,3.42c1.29,2.26-2.22,4.06-3.36,1.87l-2.07-3.28Z"/>
          <path class="cls-8" d="m609.3,344.41c-1.5-2.18,1.69-4.46,3.34-2.22l2.07,3.27c1.36,2.12-1.84,4.39-3.33,2.22l-2.07-3.27Z"/>
          <path class="cls-8" d="m600.52,331.27c-1.35-2.11,1.84-4.39,3.34-2.21l2.27,3.19c1.35,2.12-1.84,4.39-3.34,2.22l-2.28-3.19Z"/>
          <path class="cls-8" d="m591.55,318.57c-1.58-2.38,1.84-4.39,3.11-2.49l2.43,3.25c1.43,2.32-1.84,4.39-3.19,2.28l-2.34-3.04Z"/>
          <path class="cls-8" d="m582.02,305.98c-1.62-1.88,1.34-4.43,3.1-2.49l2.43,3.25c1.47,1.82-1.34,4.43-3.05,2.34l-2.48-3.11Z"/>
          <path class="cls-8" d="m572.1,293.91c-1.62-1.88,1.25-4.64,2.96-2.55l2.54,2.96c1.71,2.09-1.19,4.49-2.96,2.55l-2.55-2.96Z"/>
          <path class="cls-8" d="m561.77,282.01c-1.77-1.94,1.34-4.43,2.96-2.55l2.55,2.96c1.77,1.94-1.19,4.49-2.96,2.54l-2.54-2.96Z"/>
          <path class="cls-8" d="m551.04,270.64c-1.89-1.65.9-4.61,2.87-2.75l2.61,2.81c1.83,1.8-.75,4.68-2.73,2.82l-2.75-2.88Z"/>
          <path class="cls-8" d="m539.78,259.73c-1.83-1.8.9-4.61,2.72-2.82l2.88,2.58c1.91,2.01-.96,4.76-2.79,2.96l-2.82-2.73Z"/>
          <path class="cls-8" d="m528.18,249.2c-1.75-1.59.45-4.8,2.64-3.02l3.02,2.64c1.81,1.44-.46,4.8-2.64,3.02l-3.02-2.64Z"/>
          <path class="cls-8" d="m516.26,239.05c-2.1-1.57.4-4.65,2.43-2.94l3.09,2.5c1.95,1.5-.4,4.65-2.43,2.94l-3.09-2.49Z"/>
          <path class="cls-8" d="m503.88,229.57c-2.01-1.36-.04-4.84,2.35-3.15l3.14,2.34c2.18,1.78-.54,4.59-2.35,3.15l-3.14-2.35Z"/>
          <path class="cls-8" d="m491.17,220.46c-2.16-1.42-.1-4.69,2.05-3.27l3.36,2.26c2.01,1.36-.11,4.77-2.26,3.36l-3.15-2.35Z"/>
          <path class="cls-8" d="m481.28,214.08c-1.11-.64-2.16-1.42-3.42-2.12-2.3-1.48.19-4.56,2.12-3.42,1.2.85,2.31,1.48,3.36,2.27,2.31,1.48-.05,4.63-2.06,3.27h0Z"/>
          <path class="cls-8" d="m464.52,203.97c-2.29-1.13-.46-4.67,1.91-3.33l3.32,1.91c2.22,1.27.46,4.67-1.91,3.33l-3.33-1.91Z"/>
          <path class="cls-8" d="m450.72,196.65c-2.51-1.4-.45-4.66,1.68-3.6l3.54,1.82c2.36,1.33.39,4.81-1.82,3.54l-3.39-1.76Z"/>
          <path class="cls-8" d="m436.53,189.85c-2.28-1.13-.81-4.64,1.68-3.6l3.6,1.68c2.2.92.81,4.64-1.68,3.6l-3.6-1.68Z"/>
          <path class="cls-8" d="m425.81,185.02c-1.17-.49-2.34-.98-3.66-1.53-2.49-1.04-.67-4.58,1.53-3.66,1.17.49,2.49,1.04,3.66,1.53,2.43,1.19.81,4.64-1.53,3.66h0Z"/>
          <path class="cls-8" d="m407.62,177.92c-2.4-.83-1.16-4.62,1.39-3.72l3.58,1.32c2.4.83,1.31,4.68-1.39,3.72l-3.58-1.33Z"/>
          <path class="cls-8" d="m392.76,172.73c-2.4-.83-1.23-4.47,1.18-3.64l3.79,1.24c2.61.75,1.23,4.47-1.18,3.64l-3.78-1.24Z"/>
          <path class="cls-8" d="m381.58,169.43c-1.32-.55-2.55-.9-3.78-1.24-2.62-.75-1.23-4.47,1.03-3.7,1.23.34,2.61.74,3.84,1.09,2.61.75,1.22,4.47-1.09,3.85h0Z"/>
          <path class="cls-8" d="m362.59,164.24c-2.38-.48-1.64-4.3.89-3.76l3.91.95c2.38.48,1.79,4.36-.89,3.76l-3.91-.95Z"/>
          <path class="cls-8" d="m347.29,160.93c-2.53-.54-1.58-4.45.8-3.96l3.9.94c2.53.54,1.64,4.3-.89,3.76l-3.82-.74Z"/>
          <path class="cls-8" d="m332,157.97c-2.44-.33-2.2-4.19.59-3.88l3.82.74c2.73.46,1.79,4.36-.59,3.88l-3.82-.74Z"/>
          <path class="cls-8" d="m316.48,155.61c-2.59-.4-2.21-4.19.44-3.94l4.03.65c2.44.33,2.06,4.13-.59,3.88l-3.88-.59Z"/>
          <path class="cls-8" d="m300.91,153.73c-2.79-.31-2-4.28.45-3.94l3.94.45c2.59.39,2,4.28-.44,3.94l-3.95-.45Z"/>
        </g>
      </g>
      <g>
        <path d="m951.37,153.98s-4.88,633.22-3.46,671.64l22.36.47s1.13-667.38,0-672.11-8.88-3.6-11.06-3.6-7.84,3.6-7.84,3.6Z"/>
        <g>
          <path class="cls-39" d="m865.26,178s172.02-18.71,201.79-17.22c0,0,34.09,18.27,34.81,20.97s-25.48,32.88-28.19,33.6-205.11,16.87-205.11,16.87l-3.3-54.22Z"/>
          <path class="cls-24" d="m1101.85,181.74c.71,2.71-25.47,32.89-28.18,33.61-2.71.71-205.11,16.87-205.11,16.87l-1.27-20.96c19.1-1.28,45.84-2.34,83.03-2.91,121.31-1.86,146.13-18.73,150.78-27.51.43.37.7.68.75.89Z"/>
          <path class="cls-36" d="m964.67,175.62c0,1.81-1.47,3.27-3.27,3.27s-3.27-1.47-3.27-3.27,1.47-3.27,3.27-3.27,3.27,1.47,3.27,3.27Z"/>
          <path class="cls-36" d="m964.67,213.89c0,1.81-1.47,3.27-3.27,3.27s-3.27-1.47-3.27-3.27,1.47-3.27,3.27-3.27,3.27,1.47,3.27,3.27Z"/>
        </g>
        <g>
          <path class="cls-39" d="m1065.66,317.56s-172.98-4.18-202.3-9.59c0,0-31.38-22.61-31.73-25.39-.35-2.78,29.61-29.23,32.38-29.58s205.54,10.38,205.54,10.38l-3.9,54.18Z"/>
          <path class="cls-24" d="m1067.6,290.81l-1.93,26.74s-172.99-4.17-202.3-9.6c0,0-16.32-11.76-25.54-19.35,17.18-.04,40.24,1.36,71.17,5.19,85.69,10.63,136.24,2.34,158.59-2.98Z"/>
          <g>
            <path class="cls-36" d="m963.15,266.14c0,1.81-1.47,3.27-3.27,3.27s-3.27-1.47-3.27-3.27,1.47-3.27,3.27-3.27,3.27,1.47,3.27,3.27Z"/>
            <path class="cls-36" d="m963.15,304.41c0,1.81-1.47,3.27-3.27,3.27s-3.27-1.47-3.27-3.27,1.47-3.27,3.27-3.27,3.27,1.47,3.27,3.27Z"/>
          </g>
        </g>
        <g>
          <path class="cls-39" d="m855.14,405.64s172.98-4.18,202.3-9.59c0,0,31.38-22.61,31.73-25.39.35-2.78-29.61-29.23-32.38-29.58s-205.54,10.38-205.54,10.38l3.9,54.18Z"/>
          <path class="cls-24" d="m853.21,378.9l1.93,26.74s172.99-4.17,202.3-9.6c0,0,16.32-11.75,25.54-19.35-17.18-.04-40.24,1.36-71.17,5.19-85.69,10.63-136.24,2.34-158.59-2.98Z"/>
          <g>
            <path class="cls-36" d="m957.66,354.22c0,1.81,1.47,3.27,3.27,3.27s3.27-1.47,3.27-3.27-1.47-3.27-3.27-3.27-3.27,1.47-3.27,3.27Z"/>
            <path class="cls-36" d="m957.66,392.5c0,1.81,1.47,3.27,3.27,3.27s3.27-1.47,3.27-3.27-1.47-3.27-3.27-3.27-3.27,1.47-3.27,3.27Z"/>
          </g>
        </g>
      </g>
      <g>
        <path class="cls-1" d="m1164.82,75.41c-2.96-11.36-11.95-39.59-30.45-33.62-15.2,4.91-22.41,19.43-41.33,24.12C1074.13,70.61,1072.69-.08,1020.88,0c-44.5.07-70.32,57.77-87.59,62.77-17.27,4.99-22.82-13.27-46.88-17.12-25.94-4.15-50.56,19.31-56.59,29.77h335Z"/>
        <path class="cls-1" d="m395.16,273.62c-1.88-7.21-7.58-25.13-19.33-21.34-9.65,3.11-14.23,12.33-26.24,15.31-12.01,2.98-12.92-41.89-45.81-41.84-28.25.04-44.64,36.68-55.6,39.85-10.96,3.17-14.49-8.42-29.76-10.87-16.47-2.64-32.1,12.26-35.93,18.9h212.67Z"/>
        <path class="cls-1" d="m1235.13,315.63c-1.42-5.43-5.72-18.94-14.57-16.09-7.27,2.35-10.72,9.3-19.77,11.54-9.05,2.25-9.74-31.58-34.53-31.54-21.29.03-33.65,27.64-41.91,30.03-8.26,2.39-10.92-6.35-22.43-8.19-12.41-1.99-24.19,9.24-27.08,14.24h160.29Z"/>
      </g>
      <path d="m1187.95,830.03H5.68c-3.14,0-5.68-1.39-5.68-3.1h0c0-1.71,2.54-3.1,5.68-3.1h1182.26c3.14,0,5.68,1.39,5.68,3.1h0c0,1.71-2.54,3.1-5.68,3.1Z"/>
      <g>
        <path class="cls-39" d="m1049.39,699.66s48.83-5.95,109.96,0l-20.04,13.05-66.06,3.44-23.86-16.5Z"/>
        <g>
          <path class="cls-39" d="m1234.18,566.84s-.13,78.97-123.07,121.09c0,0-12.15-91.25,123.07-121.09Z"/>
          <path class="cls-15" d="m1207.08,592.74s-56.56,29.16-109.52,117.69"/>
          <polyline class="cls-15" points="1185.21 590.63 1184.7 608.27 1200.22 609.17"/>
          <polyline class="cls-15" points="1128.59 641.84 1130.74 663.03 1156.93 659.29"/>
          <polyline class="cls-15" points="1159.37 605.67 1159.7 629.23 1187.65 628.87"/>
        </g>
        <g>
          <path class="cls-39" d="m971.1,570.29s.12,76.39,119.06,117.14c0,0,11.75-88.28-119.06-117.14Z"/>
          <path class="cls-11" d="m997.32,595.35s37.39,18.16,92.84,92.08"/>
          <polyline class="cls-11" points="1018.47 593.3 1018.96 610.36 1003.96 611.24"/>
          <polyline class="cls-11" points="1073.25 642.84 1071.16 663.34 1045.83 659.73"/>
          <polyline class="cls-11" points="1043.48 607.85 1043.15 630.65 1016.12 630.29"/>
        </g>
        <g>
          <path class="cls-35" d="m1097.56,692.24s-80.02-37.51-43.29-91.4c0,0-30.34-29.7-.8-50.58,0,0-103.15-101.83-22.7-124.21,96.83-26.93,77.23,119.35,77.23,119.35,0,0,27.67,5.63,9.09,48.02,0,0,39.85,37.22-19.53,98.81h0Z"/>
          <path class="cls-13" d="m1053.95,468.74s43.61,94.27,43.61,252.46"/>
        </g>
        <path class="cls-42" d="m1049.39,699.66s55.76,8.4,109.96,0l-23.02,123.29h-64.16s-26.23-114.07-22.77-123.29Z"/>
      </g>
      <g>
        <g>
          <path d="m975.63,826.29h-137.63c-8.58,0-15.27-7.43-14.37-15.97l18.3-173.71c.77-7.36,6.98-12.94,14.37-12.94h101.02c7.4,0,13.6,5.58,14.37,12.94l18.3,173.71c.9,8.53-5.79,15.97-14.37,15.97Z"/>
          <path class="cls-30" d="m992.38,763.4s12.49,30.89,9.54,37.71c-2.95,6.81-16.89,7.05-16.89,7.05l-5.14-47.49,12.49,2.73Z"/>
          <path class="cls-39" d="m977.79,739.5s16.22,12.33,20.63,24.97c.74,2.12-.86,4.34-3.11,4.34h-16.62l-.89-29.31Z"/>
          <path class="cls-30" d="m962.94,826.29h-137.63c-8.58,0-15.27-7.43-14.37-15.97l12.25-116.31,1.64-15.52,4.41-41.87c.78-7.36,6.98-12.94,14.38-12.94h101.02c7.4,0,13.6,5.58,14.38,12.94l4.65,44.16.63,6,13.02,123.54c.9,8.54-5.79,15.97-14.37,15.97Z"/>
          <path class="cls-30" d="m803.82,763.4s-12.49,30.89-9.54,37.71c2.95,6.81,16.89,7.05,16.89,7.05l5.14-47.49-12.49,2.73Z"/>
          <path class="cls-39" d="m818.4,739.51h0s-16.22,12.32-20.63,24.96c-.74,2.12.86,4.33,3.11,4.33h14.43l3.09-29.3Z"/>
          <path d="m814.92,769.54c-1.62,12.71-3.24,25.42-4.86,38.12-.08.65.94.64,1.02,0,1.62-12.71,3.24-25.42,4.86-38.12.08-.65-.94-.64-1.02,0h0Z"/>
          <rect x="832.78" y="739.19" width="123.35" height="58.62" rx="14.91" ry="14.91"/>
          <rect class="cls-3" x="823.09" y="739.19" width="123.11" height="58.62" rx="14.91" ry="14.91"/>
          <rect x="936.51" y="757.46" width="1.36" height="40.35"/>
          <rect x="835.35" y="757.46" width="1.36" height="40.35"/>
          <rect x="823.09" y="756.78" width="123.11" height="1.36"/>
          <g>
            <g class="cls-5">
              <path class="cls-23" d="m968.73,680.86l-2.15,4.94s-.72.37-2.29.98c-9.15,3.53-47.25,15.01-141.1,7.23l1.64-15.52,138.83,2.29,5.07.08Z"/>
            </g>
            <path d="m882.39,696.89c-16.67,0-36.28-.75-59.21-2.65l-.23-.02,1.68-15.96h.21s138.83,2.29,138.83,2.29l5.41.09-2.32,5.33-.07.04s-.75.39-2.31.99c-7.15,2.76-30.67,9.9-81.99,9.9Zm-58.94-3.09c93.25,7.7,131.32-3.59,140.77-7.23,1.26-.49,1.98-.83,2.19-.93l1.98-4.55-4.73-.08-138.63-2.29-1.59,15.08Z"/>
          </g>
          <path class="cls-3" d="m968.73,682.25c-.89,9.87-153.75,9.87-152.86,0l4.92-54.45c.62-6.84,7.18-12.08,13.91-11.13,7.81,1.1,15.77,1.97,23.86,2.6.53.05,1.06.09,1.59.12,18.95,1.42,38.66,1.55,59.14.42.5-.03,1-.06,1.5-.09,11.81-.69,23.88-1.8,36.2-3.33,6.82-.85,12.31,4.39,11.7,11.15l.05,54.7Z"/>
          <path class="cls-27" d="m968.73,682.25c-.88,9.86-153.75,9.86-152.85,0l2.23-24.76c11.97,3.09,70.85,16.14,150.61-1.79v26.56Z"/>
          <path class="cls-27" d="m946.2,771v11.91c0,8.24-6.68,14.91-14.9,14.91h-93.3c-7.62,0-13.91-5.72-14.8-13.09,12.51-1.95,30.45-2.89,56.12-1.27,37.97,2.39,57.18-4.66,66.88-12.46Z"/>
        </g>
        <g>
          <rect x="882.52" y="665.42" width="13.93" height="61.79"/>
          <path d="m896.68,727.43h-14.39v-62.24h14.39v62.24Zm-13.93-.45h13.48v-61.33h-13.48v61.33Z"/>
        </g>
      </g>
      <g>
        <path class="cls-39" d="m819.28,287.78s-9.2-72.65-24.68-83.27-105.02-20.44-142.49-4.21c0,0-21.68,19.73-21.52,45.71.16,25.97,188.68,41.77,188.68,41.77Z"/>
        <path class="cls-42" d="m793.01,414.94s10.42-178.37-7.65-200.81c-10.61-13.18-130.52-20.79-138.73,0-8.21,20.79-17.37,177.11-15.87,187.79,1.5,10.68,162.25,13.02,162.25,13.02Z"/>
        <g>
          <rect class="cls-2" x="689.05" y="192.42" width="45.29" height="48.21"/>
          <g>
            <path class="cls-2" d="m711.7,208.67h0c-18.99,0-34.39-15.4-34.39-34.39v-33.14c0-18.99,15.4-34.39,34.39-34.39h0c18.99,0,34.39,15.4,34.39,34.39v33.14c0,18.99-15.4,34.39-34.39,34.39Z"/>
            <circle class="cls-2" cx="678.81" cy="168.59" r="12.03" transform="translate(296.9 754.54) rotate(-70.85)"/>
            <path class="cls-42" d="m735.42,105.37l-6.98-4.62c-15.13-10.02-35.15-8.39-48.45,3.95h0c-13.59,12.6-18.43,32.04-12.35,49.54l2.25,6.27c1.52-1.57,3.89-3.43,7.4-3.85v-12.08c21.06.87,39.94-4.17,56.38-15.87,6.45,4.12,12.41,11.46,12.41,20.37v7.95c3.29-.85,6.29-.5,9.03.98,5.06-26.1,4.04-47.73-19.69-52.64Z"/>
            <path class="cls-20" d="m711.7,209.48c8.53,0,16.76-3.09,23.18-8.71l-1.06-1.21c-6.12,5.36-13.98,8.31-22.12,8.31s-15.77-2.87-21.85-8.07l-1.05,1.22c6.37,5.46,14.5,8.46,22.9,8.46Z"/>
            <rect class="cls-20" x="676.97" y="156.57" width="1.61" height="24"/>
            <rect class="cls-33" x="671.36" y="143.76" width="5.95" height="1.61"/>
            <g>
              <circle class="cls-2" cx="749.4" cy="168.59" r="12.03" transform="translate(-14.98 92.83) rotate(-7.02)"/>
              <path class="cls-20" d="m756.34,168.59h1.61c0-4.72-3.84-8.56-8.56-8.56-.93,0-1.85.15-2.73.44l.51,1.53c.71-.24,1.46-.36,2.21-.36,3.83,0,6.95,3.12,6.95,6.95Z"/>
              <rect class="cls-20" x="749.72" y="164.78" width="6.32" height="1.61" transform="translate(77.79 537.74) rotate(-41.27)"/>
            </g>
            <g>
              <path class="cls-42" d="m694.27,164.69c0,1.36-1.1,2.45-2.45,2.45s-2.45-1.1-2.45-2.45,1.1-2.45,2.45-2.45,2.45,1.1,2.45,2.45Z"/>
              <path class="cls-42" d="m725.66,164.69c0,1.36-1.1,2.45-2.45,2.45s-2.45-1.1-2.45-2.45,1.1-2.45,2.45-2.45,2.45,1.1,2.45,2.45Z"/>
              <path class="cls-20" d="m701.21,179.74h7.74c3,0,5.88-1.09,8.13-3.08l-1.07-1.21c-1.95,1.72-4.45,2.68-7.06,2.68h-7.74v1.61Z"/>
              <rect class="cls-20" x="706.31" y="181.81" width="5.52" height="1.61"/>
              <path class="cls-20" d="m709.58,173.78l.56-1.51-1.49-.55c-2.09-.77-3.19-3.12-2.46-5.22l2.24-6.38-1.52-.53-2.24,6.38c-1.03,2.93.51,6.19,3.42,7.27l1.49.55Z"/>
              <path class="cls-42" d="m688.81,157.57c2.02-.75,3.98-.75,6,0l.75-2.02c-2.49-.92-5.01-.92-7.5,0l.75,2.02Z"/>
              <path class="cls-42" d="m720.2,157.57c2.02-.75,3.98-.75,6.01,0l.75-2.02c-2.5-.92-5.01-.92-7.5,0l.75,2.02Z"/>
            </g>
            <rect class="cls-20" x="741.75" y="179.2" width="3.85" height="1.61"/>
          </g>
        </g>
        <g>
          <polygon class="cls-42" points="623.35 107.05 705.07 63.77 796.05 90.28 755.56 107.05 669.62 112.3 623.35 107.05"/>
          <path class="cls-30" d="m756.05,121.28c-34.3-10.02-87.56,2.54-87.56,2.54.05-3.47,1.3-12.91,2.18-19.16,0,0,37.3-15.34,79.8-2.45l5.58,19.07Z"/>
          <g>
            <path class="cls-10" d="m705.19,63.77v27.96"/>
            <path class="cls-40" d="m705.21,87.98s-4.27.67-4.5,4.57l8.92-.48s.2-4.09-4.42-4.09Z"/>
            <path class="cls-4" d="m700.37,105.96l.34-13.4,8.92-.48,1.45,14.46s-3.86.72-5.01,0c-1.16-.72-1.54-3.9-1.54-3.9,0,0,.82,3.62-.63,3.76-1.45.14-3.52-.43-3.52-.43Z"/>
          </g>
        </g>
        <g>
          <path class="cls-2" d="m611.6,378.82l55.56-108.73-28.12-27.8s-42.81,58.11-50.71,81.46c-7.91,23.35-14.54,46.13-2.98,57.73,11.55,11.6,26.25-2.66,26.25-2.66Z"/>
          <polygon class="cls-2" points="622.43 760.07 617.06 802.85 657.88 802.85 664.65 760.07 622.43 760.07"/>
          <path d="m660.81,791.53h-43.01l-28.37,12.74c-6.95,3.65-10.09,11.79-7.35,19.06h72.43c2.82,0,5.14-2.2,5.25-4.98l1.05-26.82Z"/>
          <polygon class="cls-2" points="771.26 760.07 771.26 802.85 731.42 802.85 730.06 760.07 771.26 760.07"/>
          <path d="m730.11,791.53h42.35l21.89,12.74c6.84,3.65,9.94,11.79,7.24,19.06h-66.98c-2.85,0-5.14-2.34-5.08-5.19l.58-26.6Z"/>
          <path class="cls-42" d="m788.11,439.48h-152.06l-21.18,339.69c-.16,2.56,1.87,4.72,4.43,4.72h50.9c2.83,0,5.22-2.1,5.6-4.9l36.28-272.79,9.18,272.57c.1,2.86,2.44,5.12,5.3,5.12h49.4c3.36,0,6.1-2.69,6.16-6.05l5.99-338.36Z"/>
          <polygon class="cls-33" points="711.27 506.21 712.88 506.21 712.88 489.17 682.74 470 681.88 471.36 711.27 490.06 711.27 506.21"/>
          <path class="cls-35" d="m785.73,234.91l-51.27-14.06h-45.45l-50.6,14.06c-13.25,3.73-22,16.9-20.71,31.17l12.21,170.82c.29,3.19,2.96,5.63,6.16,5.63h152.01c1.38,0,2.54-1.05,2.66-2.43l15.7-174.02c1.29-14.28-7.46-27.44-20.71-31.17Z"/>
          <g>
            <rect class="cls-1" x="688.91" y="346.99" width="81.38" height="41.17" rx="4.17" ry="4.17" transform="translate(581.13 1170.94) rotate(-106.27)"/>
            <path class="cls-40" d="m726.77,326.02c5.36,18.31,17.18,58.45,23.44,77.93l6.54-1.91c2.21-.65,3.49-2.97,2.84-5.18l-20.47-70.1c-.64-2.21-2.96-3.48-5.17-2.84l-7.18,2.1Z"/>
            <line class="cls-12" x1="734.84" y1="373.46" x2="727.74" y2="349.14"/>
            <line class="cls-12" x1="728.59" y1="375.43" x2="721.49" y2="351.11"/>
            <line class="cls-12" x1="722.68" y1="377.01" x2="718.02" y2="361.04"/>
            <path class="cls-34" d="m724.29,330.55s-14.52,4.28-15.15,4.8c-.63.52,3.4,13.93,3.4,13.93,0,0,14.68-3.5,15.54-4.76.86-1.25-3.79-13.97-3.79-13.97Z"/>
          </g>
          <g>
            <rect class="cls-1" x="685.66" y="376.68" width="66.59" height="41.17" rx="3.74" ry="3.74" transform="translate(733.05 1218.55) rotate(-119.91)"/>
            <rect class="cls-3" x="685.25" y="377.79" width="66.59" height="41.17" rx="3.74" ry="3.74" transform="translate(731.47 1219.87) rotate(-119.91)"/>
            <g>
              <path class="cls-16" d="m703.58,400.51c3.52,6.92,11.99,9.67,18.9,6.15,6.92-3.52,9.67-11.99,6.15-18.9-3.52-6.92-11.99-9.67-18.9-6.15-6.92,3.52-9.67,11.99-6.15,18.9Z"/>
              <path class="cls-16" d="m703.23,399.83c.27.52,6.09-1.91,13.01-5.43,6.92-3.52,12.31-6.8,12.05-7.32"/>
              <path class="cls-16" d="m702.79,390.28c.63,1.23,5.17.17,10.15-2.36,4.98-2.53,8.51-5.59,7.88-6.82"/>
              <path class="cls-16" d="m729.65,398.45c-.63-1.23-5.17-.17-10.15,2.36-4.98,2.53-8.51,5.59-7.88,6.82"/>
              <path class="cls-16" d="m709.91,397.29c3.52,6.92,9.15,11.11,12.58,9.37,3.42-1.74,3.34-8.76-.18-15.68-3.52-6.92-9.15-11.11-12.58-9.37-3.42,1.74-3.34,8.76.18,15.68Z"/>
            </g>
          </g>
          <path class="cls-35" d="m596.46,292.43s30.91,13.31,48.9,27.55l25.42-43.81s8.13-27.32-11.16-38.84c-19.29-11.51-38.26,8.31-38.26,8.31l-24.9,46.79Z"/>
          <g>
            <path class="cls-42" d="m667.17,226.92s-37.03,49.8-41.96,144.09l-3.94-52.72s-8.11-33.32,22.07-84.74l23.84-6.63Z"/>
            <g>
              <path class="cls-41" d="m652.24,247.61c-.27-1.28-13.61-3.27-13.78.56-.09,2.06,14.36,2.15,13.78-.56Z"/>
              <path class="cls-41" d="m647.37,258.19c-.27-1.28-13.61-3.27-13.78.56-.09,2.06,14.36,2.15,13.78-.56Z"/>
              <g>
                <path class="cls-41" d="m657.11,237.03c-.27-1.28-13.61-3.27-13.78.56-.09,2.06,14.36,2.15,13.78-.56Z"/>
                <path class="cls-41" d="m643.31,268.78c-.27-1.28-13.61-3.27-13.78.56-.09,2.06,14.36,2.15,13.78-.56Z"/>
                <path class="cls-41" d="m639.03,279.58c-.22-1.02-10.77-2.59-10.91.44-.07,1.63,11.36,1.7,10.91-.44Z"/>
                <path class="cls-41" d="m635.5,291.09c-.19-.83-9.69-2.1-9.81.36-.06,1.33,10.22,1.39,9.81-.36Z"/>
                <path class="cls-41" d="m632.56,301.65c-.19-.83-9.61-2.1-9.73.36-.06,1.33,10.14,1.39,9.73-.36Z"/>
                <path class="cls-41" d="m630.99,310.88c-.19-.83-9.61-2.1-9.73.36-.06,1.33,10.14,1.39,9.73-.36Z"/>
                <path class="cls-41" d="m629.27,322.42c-.18-.83-7.28-2.1-7.39.37-.06,1.33,7.76,1.38,7.39-.37Z"/>
                <path class="cls-41" d="m627.24,331.56c-.15-.83-4.75-2.33-4.85.13-.05,1.33,5.17,1.62,4.85-.13Z"/>
              </g>
            </g>
          </g>
          <g>
            <path class="cls-2" d="m732.11,424.09s-15.46,10.98-17.53,11.05c-3.31.1-4.57-3.58-4.19-4.69,0,0-4.32-2.8-3.73-6.54,0,0-3.87-3.36-2.8-6.46,0,0-2.68-1.87-2.2-4.31.47-2.44,9.29-5.49,9.4-6.43.11-.95-6.52-2.72-8.65-4.81-2.44-2.39-1.72-3.67-1.19-3.95.53-.28,9.75,1.83,11.03,1.79,1.27-.03,12.8-1.84,12.8-1.84l7.07,26.19Z"/>
            <path class="cls-38" d="m706.15,398.78s-.69,2.31-5.46.07c0,0,.04-.84.65-.92s4.8.86,4.8.86Z"/>
            <path class="cls-9" d="m718.71,425.41s-7.08,4.96-8.32,5.04"/>
            <path class="cls-9" d="m715.65,419.64s-7.85,4.37-9.08,4.45"/>
            <path class="cls-9" d="m712.46,412.92s-7.55,4.8-8.78,4.93"/>
            <path class="cls-2" d="m719.08,399.61s28.63-8.02,43.34-13.84c14.71-5.82,39.22-18.29,39.78-24.73.56-6.44-44.63-93.93-44.63-93.93l42.06-17.42s38.18,91.89,41.59,99.67c3.42,7.79,7.91,29.86-9.6,41.43-17.51,11.58-100.85,33.63-100.85,33.63l-11.7-24.82Z"/>
            <path class="cls-35" d="m773.5,323.76s27.13-8.22,52.09-23.59l-20.93-50.48s-13.55-26.07-40.44-10.58c-26.9,15.48-4.06,54.12-2.8,58.71,1.27,4.59,12.08,25.94,12.08,25.94Z"/>
          </g>
          <polygon class="cls-23" points="793.08 406.02 746.91 421.87 793.08 410.55 793.08 406.02"/>
          <path class="cls-22" d="m687.7,301.78h-41.07v8.83h41.07v-8.83Z"/>
          <g>
            <path class="cls-6" d="m567.47,240.72l53.89-10.76-14.4-68.53c-.81-3.85-4.56-6.32-8.42-5.55l-43.92,8.77c-1.66.33-2.73,1.95-2.38,3.61l15.23,72.46Z"/>
            <polygon class="cls-1" points="576.51 238.61 641.89 238.61 625.79 162 561.41 165.23 576.51 238.61"/>
            <polygon class="cls-1" points="574.65 236.19 623.94 236.19 606.8 156.23 560.9 165.32 574.65 236.19"/>
            <path class="cls-3" d="m577.27,262.97h70.46c4.01,0,7.01-3.69,6.19-7.62l-17.87-85.05c-.61-2.93-3.2-5.02-6.19-5.02h-75.4c-1.47,0-2.57,1.35-2.26,2.79l18.89,89.88c.61,2.93,3.2,5.02,6.19,5.02Z"/>
            <path class="cls-28" d="m576.52,249.59l-15.21-72.39c-.17-.79.03-1.6.54-2.23.51-.63,1.26-.99,2.07-.99h60.73c2.77,0,5.2,1.97,5.77,4.68l14.4,68.5c.37,1.75-.07,3.54-1.19,4.93-1.13,1.39-2.8,2.18-4.58,2.18h-56.75c-2.77,0-5.2-1.97-5.77-4.69Zm-12.6-74c-.32,0-.62.14-.82.39-.2.25-.28.57-.21.88l15.21,72.39c.41,1.97,2.18,3.4,4.19,3.4h56.75c1.3,0,2.51-.58,3.33-1.58.82-1.01,1.13-2.31.87-3.58l-14.39-68.5c-.41-1.97-2.18-3.4-4.19-3.4h-60.73Z"/>
            <polygon class="cls-31" points="608.32 161.29 578.92 164.35 608.44 162.9 608.32 161.29 608.32 161.29"/>
          </g>
          <g>
            <path class="cls-2" d="m560.93,270.09l-3.9-17.48c-1.93-8.66.5-17.27,6.89-24.45l.48-.54c2.78-3.12,10.12-1.79,10.92,1.98l8.54,40.28-22.94.21Z"/>
            <path class="cls-2" d="m568.64,225.89l4.51,32.81h1.36c6.89,0,12.03-9.8,10.6-20.21h0c-1.01-7.35-5.21-12.6-10.07-12.6h-6.4Z"/>
            <path class="cls-2" d="m560.93,270.09s4.41,99.35,19.69,112.96c15.28,13.62,29.78-1.69,30.98-4.24,1.2-2.54-26.01-104.64-29.2-115.85l-21.47,7.12Z"/>
            <path class="cls-2" d="m562.86,218.84s-3.14-.86-3.7,1.11c-.56,1.98-2.94,7.94-1.42,18.65l7.19-9.98-2.06-9.79Z"/>
            <path class="cls-9" d="m563.92,228.16s-5.56,4.91-6.19,10.44"/>
          </g>
          <path class="cls-2" d="m735.94,221.49s-21.64-12.12-48.85,0c0,0,2.06,11.18,21.2,12.47,19.15,1.29,27.65-12.47,27.65-12.47Z"/>
          <path class="cls-25" d="m600.9,298.96s.33,19.08,2.85,45.13l-8.9-34.52,6.05-10.62Z"/>
          <g>
            <path class="cls-42" d="m771.24,230.94s-12.53,86.99,28.4,130.11v4.7l-13.28,8.62s-28.85-34.33-36.96-80.52c-8.12-46.19,2.92-68.09,2.92-68.09l18.93,5.19Z"/>
            <g>
              <path class="cls-41" d="m765.89,235.06c.57-1.65-11.36-4.87-13.11-2.75-1.75,2.12,11.98,5.99,13.11,2.75Z"/>
              <path class="cls-41" d="m764.2,246.74c.57-1.65-11.36-4.87-13.11-2.75-1.75,2.12,11.98,5.99,13.11,2.75Z"/>
              <path class="cls-41" d="m762.4,259.8c.57-1.65-11.36-4.87-13.11-2.75-1.75,2.12,11.98,5.99,13.11,2.75Z"/>
              <path class="cls-41" d="m763.33,273.14c.57-1.65-11.36-4.87-13.11-2.75-1.75,2.12,11.98,5.99,13.11,2.75Z"/>
              <path class="cls-41" d="m765.33,285.63c.57-1.65-11.36-4.87-13.11-2.75-1.75,2.12,11.98,5.99,13.11,2.75Z"/>
              <path class="cls-41" d="m767.58,301.27c.57-1.65-11.36-4.87-13.11-2.75-1.75,2.12,11.98,5.99,13.11,2.75Z"/>
              <path class="cls-41" d="m770.84,316.68c.57-1.65-11.36-4.87-13.11-2.75-1.75,2.12,11.98,5.99,13.11,2.75Z"/>
              <path class="cls-41" d="m776.61,332.79c.57-1.65-11.36-4.87-13.11-2.75-1.75,2.12,11.98,5.99,13.11,2.75Z"/>
              <path class="cls-41" d="m783.25,350.34c.57-1.65-9.43-4.64-11.17-2.51-1.75,2.12,10.04,5.76,11.17,2.51Z"/>
            </g>
          </g>
          <path class="cls-23" d="m778.36,321.79l6.04-1.39,14.6,31.24h0s-9.25-6.22-20.64-29.84Z"/>
        </g>
      </g>
      <g>
        <path class="cls-40" d="m437.67,555.2h143.09c11.22,0,20.33,9.11,20.33,20.33v207.22c0,11.22-9.11,20.33-20.33,20.33h-143.09c-11.22,0-20.33-9.11-20.33-20.33v-207.22c0-11.22,9.11-20.33,20.33-20.33Z"/>
        <path class="cls-27" d="m417.34,582.34s20.35,15.41,20.35,35.15,3.08,130.1,3.08,130.1c0,0-2.06,18.91-23.43,27.54v-192.79Z"/>
        <path class="cls-14" d="m417.34,582.34s20.35,15.41,20.35,35.15,3.08,130.1,3.08,130.1c0,0-2.06,18.91-23.43,27.54"/>
        <path class="cls-27" d="m601.09,582.34s-20.35,15.41-20.35,35.15-3.08,130.1-3.08,130.1c0,0,2.06,18.91,23.43,27.54v-192.79Z"/>
        <path class="cls-14" d="m601.09,582.34s-20.35,15.41-20.35,35.15-3.08,130.1-3.08,130.1c0,0,2.06,18.91,23.43,27.54"/>
        <g>
          <path class="cls-27" d="m462.97,764.03h0c-2.27,0-4.11-1.84-4.11-4.11v-164.43c0-2.27,1.84-4.11,4.11-4.11h0c2.27,0,4.11,1.84,4.11,4.11v164.43c0,2.27-1.84,4.11-4.11,4.11Z"/>
          <path class="cls-27" d="m493.8,764.03h0c-2.27,0-4.11-1.84-4.11-4.11v-164.43c0-2.27,1.84-4.11,4.11-4.11h0c2.27,0,4.11,1.84,4.11,4.11v164.43c0,2.27-1.84,4.11-4.11,4.11Z"/>
          <path class="cls-27" d="m524.63,764.03h0c-2.27,0-4.11-1.84-4.11-4.11v-164.43c0-2.27,1.84-4.11,4.11-4.11h0c2.27,0,4.11,1.84,4.11,4.11v164.43c0,2.27-1.84,4.11-4.11,4.11Z"/>
          <path class="cls-27" d="m555.46,764.03h0c-2.27,0-4.11-1.84-4.11-4.11v-164.43c0-2.27,1.84-4.11,4.11-4.11h0c2.27,0,4.11,1.84,4.11,4.11v164.43c0,2.27-1.84,4.11-4.11,4.11Z"/>
        </g>
        <g>
          <path class="cls-17" d="m467.08,555.2v-122.19c0-9.48,7.68-17.16,17.16-17.16h54.05c9.48,0,17.16,7.68,17.16,17.16v122.19"/>
          <path class="cls-42" d="m464.07,542.77h6.12c2.71,0,4.9,2.2,4.9,4.9v7.53h-15.93v-7.53c0-2.71,2.2-4.9,4.9-4.9Z"/>
          <path class="cls-42" d="m552.45,542.77h6.12c2.71,0,4.9,2.2,4.9,4.9v7.53h-15.93v-7.53c0-2.71,2.2-4.9,4.9-4.9Z"/>
          <rect class="cls-42" x="482.91" y="408.87" width="56.73" height="13.36" rx="5.71" ry="5.71"/>
        </g>
        <circle cx="472.34" cy="816.33" r="13.56" transform="translate(-438.89 573.09) rotate(-45)"/>
        <circle cx="541.9" cy="816.33" r="13.56" transform="translate(-377.57 1154.91) rotate(-76.64)"/>
        <path class="cls-27" d="m601.08,698.39v84.36c0,11.23-9.1,20.33-20.33,20.33h-143.09c-11.22,0-20.32-9.1-20.32-20.33v-1.12c118.82,16.08,165.59-35.13,183.74-83.24Z"/>
      </g>
      <g>
        <text class="cls-19" transform="translate(935.4 209.46) rotate(-3.81)"><tspan x="0" y="0">USA</tspan></text>
        <text class="cls-18" transform="translate(911.05 294.3)"><tspan class="cls-26" x="0" y="0">C</tspan><tspan class="cls-32" x="18.33" y="0">ANA</tspan><tspan class="cls-29" x="76.8" y="0">D</tspan><tspan class="cls-32" x="96.95" y="0">A</tspan></text>
        <text class="cls-18" transform="translate(911.96 385.76) rotate(-3.81)"><tspan class="cls-37" x="0" y="0">EU</tspan><tspan class="cls-21" x="35.88" y="0">R</tspan><tspan class="cls-37" x="53.06" y="0">OPE</tspan></text>
      </g>
    </g>
  </g>
</svg>